<?xml version="1.0" encoding="utf-8"?>
<!-- Generator: Adobe Illustrator 19.0.0, SVG Export Plug-In . SVG Version: 6.00 Build 0)  -->
<svg version="1.1" id="Layer_1" xmlns="http://www.w3.org/2000/svg" xmlns:xlink="http://www.w3.org/1999/xlink" x="0px" y="0px"
	 viewBox="0 0 122.9 122.9" style="enable-background:new 0 0 122.9 122.9;" xml:space="preserve">
<style type="text/css">
	.st0{fill:#FFFFFF;}
	.st1{fill:#1ABC9C;}
	.st2{fill-rule:evenodd;clip-rule:evenodd;fill:#1ABC9C;}
</style>
<path class="st0" d="M61.4,0C27.6,0,0,27.6,0,61.4s27.6,61.4,61.4,61.4s61.4-27.6,61.4-61.4S95.3,0,61.4,0z"/>
<g>
	<g>
		<path class="st1" d="M88.2,80.3c-3.6,0.2-8.4,3.9-13.1,6c-5.7,2.6-14.5,0.5-14.5,0.5c1.4-0.6,6.9-2,8-2.4c5.9-2.6,5.4-8,2.6-8
			c-3.7,0.1-5.9,1-13.4,2C52.2,79,45.6,78.8,42.4,80c-4.5,1.7-11.8,13.3-11.8,13.3l11.2,10.9c0,0,7-6.9,10.3-6.9
			c7.7,0,8-0.1,15.2-0.5c3-0.2,3.7-0.3,5.4-0.9c9.3-3.1,19.3-11.5,19.4-12.5C92.7,81.1,90.1,80.1,88.2,80.3L88.2,80.3z M88.2,80.3"
			/>
	</g>
	<g>
		<g>
			<path class="st2" d="M56.3,63.9c-0.4,0-0.8-0.4-0.8-0.8c0-0.4,0.4-0.8,0.8-0.8h9.4c0.4,0,0.8,0.4,0.8,0.8c0,0.4-0.4,0.8-0.8,0.8
				H56.3z M56.3,63.9"/>
		</g>
		<g>
			<path class="st2" d="M57.3,67.1c-0.4,0-0.8-0.4-0.8-0.8c0-0.4,0.4-0.8,0.8-0.8h7.3c0.4,0,0.8,0.4,0.8,0.8c0,0.4-0.4,0.8-0.8,0.8
				H57.3z M57.3,67.1"/>
		</g>
		<g>
			<path class="st2" d="M60.2,55.9c0,0.5-0.4,0.8-0.8,0.8c-0.4,0-0.8-0.4-0.8-0.8c0-3.4-0.1-5.9-0.6-8.3c-0.5-2.3-1.3-4.5-2.8-7.1
				c-0.2-0.4-0.1-0.9,0.3-1.1c0.4-0.2,0.9-0.1,1.1,0.3c1.6,2.8,2.5,5.1,2.9,7.6C60.1,49.8,60.2,52.4,60.2,55.9L60.2,55.9z
				 M60.2,55.9"/>
		</g>
		<g>
			<path class="st2" d="M63.3,55.9c0,0.5-0.4,0.8-0.8,0.8s-0.8-0.4-0.8-0.8c0-3.5,0.1-6.1,0.6-8.6c0.5-2.5,1.4-4.8,2.9-7.6
				c0.2-0.4,0.7-0.5,1.1-0.3c0.4,0.2,0.5,0.7,0.3,1.1c-1.5,2.7-2.3,4.8-2.8,7.1C63.4,50,63.3,52.5,63.3,55.9L63.3,55.9z M63.3,55.9"
				/>
		</g>
		<g>
			<path class="st2" d="M55.7,40.9c-0.4-0.1-0.6-0.6-0.5-1c0.1-0.4,0.6-0.6,1-0.5c0.6,0.2,1.1,0.4,1.5,0.6l0.1,0
				c0.7,0.4,1.3,0.6,1.7,0.3l1-0.8c0.3-0.3,0.9-0.2,1.1,0.1c0.3,0.3,0.2,0.9-0.1,1.1l-1,0.8c-1.2,1-2.2,0.5-3.5-0.1l0,0
				C56.6,41.3,56.2,41,55.7,40.9L55.7,40.9z M55.7,40.9"/>
		</g>
		<g>
			<path class="st2" d="M61.8,22.6c0,0.5-0.4,0.8-0.8,0.8c-0.4,0-0.8-0.4-0.8-0.8v-3.1c0-0.4,0.4-0.8,0.8-0.8c0.4,0,0.8,0.4,0.8,0.8
				V22.6z M61.8,22.6"/>
		</g>
		<g>
			<path class="st2" d="M65.7,39.4c0.4-0.1,0.9,0.1,1,0.5c0.1,0.4-0.1,0.9-0.5,1c-0.4,0.1-0.9,0.4-1.3,0.6l0,0
				c-1.2,0.6-2.2,1.1-3.5,0.1l-1-0.8c-0.3-0.3-0.4-0.8-0.1-1.1c0.3-0.3,0.8-0.4,1.1-0.1l1,0.8c0.4,0.4,1,0.1,1.7-0.3l0,0
				C64.7,39.8,65.2,39.5,65.7,39.4L65.7,39.4z M65.7,39.4"/>
		</g>
		<g>
			<path class="st2" d="M71.1,31.2c2.6,2.6,4.2,6.2,4.2,10.2c0,1.6-0.2,3-0.7,4.4c-0.5,1.5-1.2,2.8-2.1,4c-1.5,2-2.7,3.4-3.6,4.4
				c-1.7,1.9-2.4,2.7-2.4,5.4c0,0.4-0.4,0.8-0.8,0.8h-9.4c-0.5,0-0.8-0.4-0.8-0.8c0-2.7-0.7-3.5-2.4-5.3c-0.9-1-2.2-2.4-3.7-4.4
				c-0.9-1.2-1.6-2.6-2.1-4c-0.5-1.4-0.7-2.9-0.7-4.4c0-1.9,0.4-3.8,1.1-5.5l0,0c0.7-1.7,1.8-3.3,3.1-4.6c1.3-1.3,2.9-2.4,4.7-3.1
				C57.2,27.4,59,27,61,27c1.9,0,3.8,0.4,5.5,1.1C68.2,28.8,69.8,29.9,71.1,31.2L71.1,31.2z M73.7,41.4c0-3.5-1.4-6.7-3.7-9
				c-1.2-1.2-2.6-2.1-4.1-2.8c-1.5-0.6-3.1-1-4.9-1c-1.7,0-3.4,0.3-4.9,1c-1.6,0.6-3,1.6-4.1,2.8c-1.2,1.2-2.1,2.6-2.7,4.1l0,0
				c-0.6,1.5-1,3.1-1,4.9c0,1.4,0.2,2.7,0.6,3.9c0.4,1.3,1,2.5,1.8,3.6c1.5,2,2.7,3.3,3.6,4.3v0c1.8,2,2.7,2.9,2.8,5.6h7.9
				c0.1-2.7,1-3.7,2.8-5.7c0.9-1,2.1-2.3,3.5-4.3c0.8-1.1,1.4-2.3,1.8-3.6C73.5,44.1,73.7,42.7,73.7,41.4L73.7,41.4z M73.7,41.4"/>
		</g>
		<g>
			<path class="st2" d="M58.4,70.3c-0.4,0-0.8-0.4-0.8-0.8c0-0.4,0.4-0.8,0.8-0.8h5.2c0.5,0,0.8,0.4,0.8,0.8c0,0.4-0.4,0.8-0.8,0.8
				H58.4z M58.4,70.3"/>
		</g>
		<g>
			<path class="st2" d="M70.9,25.5c-0.2,0.4-0.7,0.5-1.1,0.3c-0.4-0.2-0.5-0.7-0.3-1.1L71,22c0.2-0.4,0.7-0.5,1.1-0.3
				c0.4,0.2,0.5,0.7,0.3,1.1L70.9,25.5z M70.9,25.5"/>
		</g>
		<g>
			<path class="st2" d="M52.5,24.7c0.2,0.4,0.1,0.9-0.3,1.1c-0.4,0.2-0.9,0.1-1.1-0.3l-1.6-2.7c-0.2-0.4-0.1-0.9,0.3-1.1
				c0.4-0.2,0.9-0.1,1.1,0.3L52.5,24.7z M52.5,24.7"/>
		</g>
		<g>
			<path class="st2" d="M45.4,31.1c0.4,0.2,0.5,0.7,0.3,1.1c-0.2,0.4-0.7,0.5-1.1,0.3l-2.7-1.6c-0.4-0.2-0.5-0.7-0.3-1.1
				c0.2-0.4,0.7-0.5,1.1-0.3L45.4,31.1z M45.4,31.1"/>
		</g>
		<g>
			<path class="st2" d="M77.3,32.5c-0.4,0.2-0.9,0.1-1.1-0.3c-0.2-0.4-0.1-0.9,0.3-1.1l2.7-1.6c0.4-0.2,0.9-0.1,1.1,0.3
				c0.2,0.4,0.1,0.9-0.3,1.1L77.3,32.5z M77.3,32.5"/>
		</g>
		<g>
			<path class="st2" d="M52.6,44.5c0.2,0.4,0,0.9-0.4,1.1c-0.4,0.2-0.9,0-1.1-0.4c-0.3-0.6-0.5-1.3-0.6-2c-0.1-0.7-0.2-1.4-0.2-2.1
				c0-0.4,0.4-0.8,0.8-0.8c0.4,0,0.8,0.4,0.8,0.8c0,0.6,0.1,1.2,0.2,1.8C52.2,43.4,52.4,44,52.6,44.5L52.6,44.5z M52.6,37.5
				c-0.2,0.4-0.6,0.6-1.1,0.4c-0.4-0.2-0.6-0.6-0.4-1.1c0.3-0.6,0.6-1.2,1-1.8l0,0h0c0.4-0.6,0.8-1.1,1.3-1.6c0.5-0.5,1-0.9,1.6-1.3
				v0c0.6-0.4,1.2-0.7,1.8-1c0.6-0.3,1.3-0.5,2-0.6c0.7-0.1,1.4-0.2,2.1-0.2c0.4,0,0.8,0.4,0.8,0.8c0,0.4-0.4,0.8-0.8,0.8
				c-0.6,0-1.2,0.1-1.8,0.2c-0.6,0.1-1.2,0.3-1.7,0.5c-0.5,0.2-1,0.5-1.5,0.8c-0.5,0.3-0.9,0.7-1.4,1.1c-0.4,0.4-0.8,0.9-1.1,1.4
				C53.1,36.4,52.8,36.9,52.6,37.5L52.6,37.5z M52.6,37.5"/>
		</g>
	</g>
</g>
</svg>
