<?xml version="1.0" encoding="utf-8"?>
<!-- Generator: Adobe Illustrator 19.0.0, SVG Export Plug-In . SVG Version: 6.00 Build 0)  -->
<svg version="1.1" id="Layer_1" xmlns="http://www.w3.org/2000/svg" xmlns:xlink="http://www.w3.org/1999/xlink" x="0px" y="0px"
	 viewBox="0 0 122.9 122.9" style="enable-background:new 0 0 122.9 122.9;" xml:space="preserve">
<style type="text/css">
	.st0{fill:#FFFFFF;}
	.st1{fill:#1ABC9C;}
</style>
<path class="st0" d="M61.4,0C27.6,0,0,27.6,0,61.4s27.6,61.4,61.4,61.4s61.4-27.6,61.4-61.4S95.3,0,61.4,0z"/>
<g>
	<g>
		<g>
			<path class="st1" d="M67.9,80.5L67.9,80.5h-0.5c-1.1,2.4-4.3,4.2-8,4.2s-6.9-1.7-8-4.2H51h-0.1c-10.5,1.9-15.7,6-17.8,8.2
				c-0.8,0.8-1.3,2-1.3,3.1v6c0,0.9,0.7,1.6,1.6,1.6h52c0.9,0,1.6-0.7,1.6-1.6v-6c0-1.2-0.5-2.3-1.3-3.1
				C83.6,86.5,78.4,82.4,67.9,80.5z"/>
		</g>
	</g>
	<g>
		<g>
			<path class="st1" d="M72.5,60.2c0.3-1.4,0.5-2.8,0.5-4.3c0-8.7-6.1-14.3-13.5-14.3c-1.8,0-3.5,0.3-5.1,1l-0.2,2.6L50.4,45
				c-2.8,2.5-4.5,6.3-4.5,11c0,1.5,0.2,2.9,0.5,4.3c-0.9,0.4-1.4,2-1.1,3.9c0.3,2,1.4,3.5,2.5,3.4c0.1,0,0.3-0.1,0.4-0.1
				C50,74,54.4,78.7,59.4,78.7c5.1,0,9.4-4.7,11.3-11.4c0.1,0.1,0.2,0.1,0.4,0.1c1.1,0.2,2.2-1.3,2.5-3.4
				C73.9,62.2,73.4,60.6,72.5,60.2z"/>
		</g>
	</g>
</g>
<g>
	<g>
		<path class="st1" d="M88.5,20.3c-6,0-10.8,4.9-10.8,10.8c0,0.8,0.1,1.5,0.2,2.2c0.2,0.7,0.1,1.5-0.2,2.1l-2.8,5.9
			c-0.2,0.4,0.2,0.9,0.7,0.8l6.6-1.4c0.7-0.1,1.4-0.1,2,0.2c1.3,0.6,2.8,0.9,4.3,0.9c6,0,10.8-4.9,10.8-10.8S94.5,20.3,88.5,20.3z"
			/>
	</g>
</g>
<g>
	<g>
		<g>
			<g>
				<path class="st0" d="M92.6,30.7c0-2.5-2.2-4.5-4.7-4.2c-1.9,0.2-3.5,1.7-3.7,3.6c-0.2,1.5,0.4,2.9,1.4,3.8
					c0.6,0.5,0.9,1.2,0.9,1.9v0.1h3.7v-0.1c0-0.7,0.4-1.4,0.9-1.9C92,33.2,92.6,32,92.6,30.7z"/>
			</g>
		</g>
	</g>
	<g>
		<g>
			<g>
				<path class="st0" d="M86.5,36.7V37c0,1,0.8,1.8,1.8,1.8c1,0,1.8-0.8,1.8-1.8v-0.3H86.5z"/>
			</g>
		</g>
	</g>
</g>
<g>
	<g>
		<g>
			<path class="st1" d="M86,30.5c0,0-0.1,0-0.1,0c-0.3-0.1-0.4-0.3-0.4-0.6c0.5-1.9,2.1-2.1,2.1-2.1c0.3,0,0.5,0.2,0.6,0.4
				c0,0.3-0.2,0.5-0.4,0.6c0,0-1,0.2-1.3,1.4C86.4,30.4,86.2,30.5,86,30.5z"/>
		</g>
	</g>
</g>
<g>
	<g>
		<path class="st0" d="M88.4,25.6c-0.1,0-0.3-0.1-0.3-0.3v-2.8c0-0.1,0.1-0.3,0.3-0.3s0.3,0.1,0.3,0.3v2.8
			C88.6,25.4,88.5,25.6,88.4,25.6z"/>
	</g>
</g>
<g>
	<g>
		<g>
			<path class="st0" d="M92.2,27.1c-0.1,0-0.1,0-0.2-0.1c-0.1-0.1-0.1-0.3,0-0.4l2-2c0.1-0.1,0.3-0.1,0.4,0c0.1,0.1,0.1,0.3,0,0.4
				l-2,2C92.3,27.1,92.3,27.1,92.2,27.1z"/>
		</g>
	</g>
	<g>
		<g>
			<path class="st0" d="M84.5,27.1c-0.1,0-0.1,0-0.2-0.1l-2-2c-0.1-0.1-0.1-0.3,0-0.4c0.1-0.1,0.3-0.1,0.4,0l2,2
				c0.1,0.1,0.1,0.3,0,0.4C84.7,27.1,84.6,27.1,84.5,27.1z"/>
		</g>
	</g>
</g>
<g>
	<g>
		<g>
			<path class="st0" d="M96.9,30.8h-2.8c-0.1,0-0.3-0.1-0.3-0.3s0.1-0.3,0.3-0.3h2.8c0.1,0,0.3,0.1,0.3,0.3S97,30.8,96.9,30.8z"/>
		</g>
	</g>
	<g>
		<g>
			<path class="st0" d="M82.7,30.8h-2.8c-0.1,0-0.3-0.1-0.3-0.3s0.1-0.3,0.3-0.3h2.8c0.1,0,0.3,0.1,0.3,0.3S82.8,30.8,82.7,30.8z"/>
		</g>
	</g>
</g>
</svg>
