<?xml version="1.0" encoding="utf-8"?>
<!-- Generator: Adobe Illustrator 19.0.0, SVG Export Plug-In . SVG Version: 6.00 Build 0)  -->
<svg version="1.1" id="Layer_1" xmlns="http://www.w3.org/2000/svg" xmlns:xlink="http://www.w3.org/1999/xlink" x="0px" y="0px"
	 viewBox="0 0 122.9 122.9" style="enable-background:new 0 0 122.9 122.9;" xml:space="preserve">
<style type="text/css">
	.st0{fill:#FFFFFF;}
</style>
<g>
	<path class="st0" d="M61.4,122.9C27.6,122.9,0,95.3,0,61.4S27.6,0,61.4,0s61.4,27.6,61.4,61.4S95.3,122.9,61.4,122.9z M61.4,4
		C29.8,4,4,29.8,4,61.4c0,31.7,25.8,57.4,57.4,57.4c31.7,0,57.4-25.8,57.4-57.4C118.9,29.8,93.1,4,61.4,4z"/>
</g>
<g>
	<g>
		<path class="st0" d="M58,85.7c-0.8-0.3-1.7,0.2-2,1.1c-0.6,2.1-2.9,3.7-6.6,4.8c-0.8,0.3-1.3,1.1-1.1,2c0.2,0.7,0.8,1.1,1.5,1.1
			c0.2,0,0.3,0,0.5-0.1c4.8-1.5,7.8-3.8,8.7-7C59.3,86.9,58.9,86,58,85.7z"/>
	</g>
	<g>
		<path class="st0" d="M47.5,38.7c0.3,0.5,0.8,0.8,1.4,0.8c0.3,0,0.5-0.1,0.8-0.2c0.8-0.4,1-1.4,0.6-2.2L47,31.6
			c-0.4-0.8-1.4-1-2.2-0.6c-0.8,0.4-1,1.4-0.6,2.2L47.5,38.7z"/>
	</g>
	<g>
		<path class="st0" d="M41.9,48.3c0.4-0.8,0.2-1.7-0.6-2.2l-5.6-3.2c-0.8-0.4-1.7-0.2-2.2,0.6c-0.4,0.8-0.2,1.7,0.6,2.2l5.6,3.2
			c0.2,0.1,0.5,0.2,0.8,0.2C41,49.1,41.6,48.8,41.9,48.3z"/>
	</g>
	<g>
		<path class="st0" d="M73.2,39.3c0.2,0.1,0.5,0.2,0.8,0.2c0.5,0,1.1-0.3,1.4-0.8l3.2-5.6c0.4-0.8,0.2-1.7-0.6-2.2
			c-0.8-0.4-1.7-0.2-2.2,0.6l-3.2,5.6C72.2,37.9,72.5,38.9,73.2,39.3z"/>
	</g>
	<g>
		<path class="st0" d="M61.4,37.8c0.9,0,1.6-0.7,1.6-1.6v-6.5c0-0.9-0.7-1.6-1.6-1.6c-0.9,0-1.6,0.7-1.6,1.6v6.5
			C59.8,37.1,60.6,37.8,61.4,37.8z"/>
	</g>
	<g>
		<path class="st0" d="M51.3,86.1c0-0.9-0.7-1.6-1.6-1.6c-3.4,0-6.1-2.8-6.1-6.1V63.1c0-2.3,0.4-4.6,1.3-6.7
			c0.3-0.8-0.1-1.7-0.9-2.1c-0.8-0.3-1.7,0.1-2.1,0.9c-1,2.5-1.5,5.2-1.5,7.9v15.3c0,5.1,4.2,9.3,9.3,9.3
			C50.6,87.7,51.3,87,51.3,86.1z"/>
	</g>
	<g>
		<path class="st0" d="M61.4,42.1c-4.1,0-8,1.2-11.4,3.4c-0.7,0.5-0.9,1.5-0.5,2.2c0.5,0.7,1.5,0.9,2.2,0.5c2.9-1.9,6.2-2.9,9.7-2.9
			c9.8,0,17.8,8,17.8,17.8v15.3c0,3.4-2.8,6.1-6.1,6.1c-0.9,0-1.6,0.7-1.6,1.6c0,0.9,0.7,1.6,1.6,1.6c5.1,0,9.3-4.2,9.3-9.3V63.1
			C82.4,51.6,73,42.1,61.4,42.1z"/>
	</g>
	<g>
		<path class="st0" d="M89.4,43.5c-0.4-0.8-1.4-1-2.2-0.6l-5.6,3.2c-0.8,0.4-1,1.4-0.6,2.2c0.3,0.5,0.8,0.8,1.4,0.8
			c0.3,0,0.5-0.1,0.8-0.2l5.6-3.2C89.5,45.2,89.8,44.3,89.4,43.5z"/>
	</g>
	<g>
		<path class="st0" d="M74.8,67.1c0-2.5-0.4-4.7-1.2-6.8c0,0,0-0.1-0.1-0.1c-0.1-0.3-0.3-0.5-0.6-0.6l0,0c0,0,0,0,0,0
			c0,0-0.1-0.1-0.1-0.1c0,0,0,0,0,0c-0.4-0.2-0.8-0.2-1.2-0.1c-0.1,0-0.1,0-0.2,0.1c-0.1,0.1-0.2,0.1-0.3,0.2
			c-2.3,1.6-5.9,2.5-9.7,2.5c-0.9,0-1.6,0.7-1.6,1.6c0,0.9,0.7,1.6,1.6,1.6h0c3.6,0,7-0.7,9.7-2.1c0.3,1.2,0.4,2.5,0.4,3.8
			c0,4.8-2.5,9.2-6.4,11.5c-1.5,0.9-2.7,1.3-3.8,1.3c-1.1,0-2.2-0.4-3.8-1.3c-3.9-2.3-6.4-6.7-6.4-11.5c0-1.4,0.1-2.6,0.4-3.8
			c0.3,0.1,0.6,0.3,0.9,0.4l0.2,0.1c1.1,0.4,1.8,0.8,2.7,0.4c0.9-0.4,1.2-1.1,1.5-2c0.1-0.2,0.2-0.4,0.3-0.7c0.4-1,0.9-2.3,1.1-2.9
			c0.2-0.8-0.2-1.7-1.1-2c-0.8-0.2-1.7,0.2-2,1.1c-0.1,0.4-0.5,1.6-0.9,2.6c-0.1,0.2-0.2,0.4-0.2,0.6c0,0-0.1,0-0.1,0l-0.2-0.1
			c-0.8-0.3-1.5-0.7-2.1-1.1c-0.1-0.1-0.2-0.1-0.3-0.2c-0.1,0-0.1-0.1-0.2-0.1c0,0,0,0,0,0c-0.4-0.1-0.8-0.1-1.2,0.1c0,0,0,0,0,0
			c0,0-0.1,0-0.1,0.1c-0.2,0.2-0.4,0.4-0.6,0.6c0,0,0,0.1-0.1,0.1c-0.8,2-1.2,4.3-1.2,6.8c0,5.9,3.1,11.4,8,14.2
			c2,1.2,3.7,1.7,5.4,1.7h0c1.7,0,3.3-0.5,5.4-1.7C71.7,78.5,74.8,73,74.8,67.1z"/>
	</g>
	<g>
		<path class="st0" d="M73.3,91.6c-3.8-1.1-6-2.8-6.6-4.8c-0.3-0.8-1.1-1.3-2-1.1c-0.8,0.3-1.3,1.1-1.1,2c1,3.1,3.9,5.5,8.7,7
			c0.2,0,0.3,0.1,0.5,0.1c0.7,0,1.3-0.4,1.5-1.1C74.6,92.8,74.2,91.9,73.3,91.6z"/>
	</g>
	<g>
		<path class="st0" d="M57.5,72.1c-0.2,0.1-0.4,0.3-0.5,0.5c-0.1,0.2-0.1,0.4,0,0.7v0c0.7,1.7,2.4,2.8,4.4,2.8
			c1.9,0,3.6-1.1,4.3-2.8c0.1-0.2,0.1-0.4,0-0.7c-0.1-0.2-0.2-0.4-0.5-0.5c-0.2-0.1-0.4-0.1-0.7,0c-0.2,0.1-0.4,0.2-0.5,0.5
			c-0.5,1.1-1.5,1.7-2.8,1.7c-1.3,0-2.3-0.7-2.8-1.7c-0.1-0.3-0.4-0.5-0.8-0.5C57.8,72,57.6,72.1,57.5,72.1z"/>
	</g>
</g>
</svg>
