<?xml version="1.0" encoding="utf-8"?>
<!-- Generator: Adobe Illustrator 19.0.0, SVG Export Plug-In . SVG Version: 6.00 Build 0)  -->
<!DOCTYPE svg PUBLIC "-//W3C//DTD SVG 1.1//EN" "http://www.w3.org/Graphics/SVG/1.1/DTD/svg11.dtd">
<svg version="1.1" id="Layer_1" xmlns="http://www.w3.org/2000/svg" xmlns:xlink="http://www.w3.org/1999/xlink" x="0px" y="0px"
	 viewBox="80 -16 175 48" style="enable-background:new 80 -16 175 48;" xml:space="preserve">
<style type="text/css">
	.st0{fill:#FFFFFF;}
</style>
<g>
	<path class="st0" d="M145.4,8.2c-0.3,0.1-0.5,0.4-0.7,0.7c-0.2,0.3-0.5,0.7-0.8,1c-0.2,0.2-0.4,0.4-0.6,0.5
		c-0.5,0.4-1.1,0.5-1.7,0.3c-0.4-0.2-0.8-0.4-1.1-0.6c-0.2-0.1-0.3-0.2-0.5-0.3c-0.3-0.1-0.4,0-0.5,0.2c0,0.1-0.1,0.2-0.1,0.3
		c-0.1,0.3-0.2,0.6-0.3,0.8c-0.3,0.5-0.5,1-0.8,1.4c-0.6,0.9-1.3,1-2.2,0.4c-0.3-0.2-0.6-0.5-0.8-0.9c-0.1-0.2-0.2-0.3-0.4-0.4
		c-1.4-0.9-2.2-2.2-2.5-3.8c-0.1-0.7-0.1-1.5-0.1-2.2c0-0.1,0-0.3,0-0.5c-0.1,0.1-0.2,0.2-0.3,0.2c-0.3,0.2-0.6,0.2-0.9,0
		c-0.2-0.1-0.3-0.3-0.5-0.4c-0.1-0.1-0.3-0.2-0.4-0.3c-0.2,0.4-0.4,0.8-0.4,1.2c-0.2,1-0.3,2-0.5,3.1c-0.3,1.7-0.5,3.5-0.9,5.2
		c-0.6,2.6-1.8,4.9-3.6,6.8c-2,2.1-4.3,3.5-7.1,4.2c-1.3,0.4-2.5,0.4-3.8-0.1c-0.8-0.3-1.5-0.8-2.1-1.5c-0.4-0.6-0.6-1.2-0.7-1.9
		c-0.1-0.8,0.1-1.6,0.2-2.3c0.1-0.6,0.3-1.2,0.6-1.8c0.5-1,0.9-2.1,1.4-3.1s1.1-1.9,1.9-2.7c0.7-0.8,1.3-1.6,1.9-2.4
		c0.2-0.3,0.2-0.4-0.1-0.6c-0.2-0.1-0.5-0.2-0.7-0.3c-0.7-0.3-1.3-0.7-1.9-1.2c-0.1-0.1-0.2-0.2-0.3-0.2c-0.2-0.1-0.4-0.1-0.6,0.2
		c-0.1,0.2-0.2,0.3-0.2,0.5c-0.2,1-0.5,2-0.7,3c0,0.2-0.1,0.3-0.2,0.5c-0.1,0.3-0.4,0.5-0.7,0.5c-0.7,0-1.3-0.3-1.6-1.1
		c-0.2-0.7-0.4-1.5-0.4-2.2c0-1.1,0.1-2.1,0.2-3.2c0-0.1,0-0.2,0-0.3c-0.6,0.2-1.2,0.4-1.6,0.8c-0.3,0.3-0.4,0.7-0.5,1
		c-0.2,1.1-0.4,2.2-0.5,3.3c-0.1,0.6-0.1,1.3-0.1,1.9c0,0.2,0,0.4,0,0.6c0,0.3-0.2,0.5-0.6,0.4c-0.1,0-0.2,0-0.3-0.1
		c-0.5-0.1-0.9-0.5-0.9-1c0-0.9,0-1.9,0.1-2.8c0.1-1,0.3-2,0.5-2.9c0.1-0.4,0-0.5-0.3-0.7c-0.6-0.3-1.1-0.6-1.7-0.8
		c-0.2-0.1-0.2,0-0.3,0.1c0,0.1-0.1,0.2-0.1,0.3c-0.5,2.1-1,4.2-1.5,6.4c-0.2,0.9-0.3,1.8-0.5,2.7c0,0.2,0,0.5,0,0.7
		c0,0.1,0,0.2,0,0.3c0,0.2-0.1,0.3-0.3,0.3c-0.4,0-0.7-0.1-1-0.4c-0.2-0.2-0.3-0.5-0.3-0.8c0.1-1.4,0.2-2.8,0.5-4.1
		c0.1-0.5,0.1-1,0.2-1.5c0-0.1,0-0.2,0-0.4c-0.2,0.1-0.3,0.2-0.4,0.3c-0.5,0.5-1.1,0.9-1.6,1.4c-0.9,0.8-2,1.3-3.1,1.9
		c-0.8,0.4-1.7,0.4-2.5-0.1c-0.2-0.1-0.5-0.3-0.7-0.5c-0.1-0.1-0.2-0.1-0.3-0.2c-0.2-0.1-0.3-0.1-0.4,0.1c0,0.1-0.1,0.1-0.1,0.2
		c-1.1,3.3-2.7,6.3-4.6,9.1c-1.3,1.9-2.7,3.9-4,5.8c-0.1,0.2-0.2,0.3-0.4,0.4c-0.2,0.2-0.5,0.3-0.9,0.3c-0.2,0-0.4,0-0.6-0.1
		c-0.5-0.1-0.8-0.6-0.6-1.1c0.1-0.2,0.2-0.4,0.3-0.5c1.9-2,3.4-4.3,4.9-6.7c1.3-2,2.4-4.2,3.4-6.5c0.5-1.3,1-2.6,1.2-4
		c0.2-1.5,0.3-3-0.2-4.5c-0.4-1.5-1.4-2.6-2.7-3.3c0,0-0.1,0-0.1-0.1C87,0,86.8,0,86.7,0.3c-0.1,0.2-0.2,0.4-0.2,0.7
		c-0.9,3.1-1.8,6.3-2.7,9.4c-0.1,0.4-0.3,0.8-0.5,1.2c-0.2,0.3-0.4,0.4-0.7,0.3c-0.4-0.1-0.5-0.3-0.5-0.7c0-0.2,0-0.3,0.1-0.5
		c0.9-3.5,1.7-7,2.6-10.5c0-0.2,0.1-0.3,0.1-0.5c0-0.3-0.1-0.5-0.4-0.5c-0.4,0-0.8,0-1.2,0.1c-0.3,0-0.6,0.1-0.9,0.2
		c-0.5,0.1-1,0.1-1.5,0c-0.4-0.1-0.7-0.4-0.8-0.8c-0.1-0.3,0-0.5,0.2-0.6C80.4-2,80.5-2,80.6-2.1c0.9-0.3,1.7-0.8,2.5-1.3
		c0.8-0.5,1.5-1,2.3-1.4c0.5-0.3,0.9-0.8,1.1-1.3c0.1-0.3,0.2-0.7,0.3-1.1c0.4-1.3,0.8-2.6,1.2-3.9c0.2-0.3,0.4-0.9,0.6-1.4
		c0.3-0.9,0.9-1.2,1.8-1c0.4,0.1,0.5,0.3,0.5,0.6c0,0.6-0.1,1.1-0.3,1.7c-0.3,0.8-0.5,1.6-0.8,2.4c0,0.1-0.1,0.2-0.1,0.3
		c0.1,0,0.2,0,0.3-0.1c2.7-2,5.4-4.1,7.7-6.6c0.2-0.2,0.3-0.3,0.5-0.5c0.5-0.3,1.3-0.2,1.8,0.2c0.3,0.2,0.3,0.6,0.2,0.9
		c-0.1,0.2-0.3,0.3-0.4,0.5C97-11.7,94.2-9.3,91.4-7c-0.7,0.6-1.4,1.1-2.1,1.7c-0.6,0.4-1,0.9-1.2,1.6c-0.2,0.7-0.4,1.4-0.6,2.1
		c0,0.2,0,0.3,0.2,0.4C87.8-1.1,87.9-1.1,88-1c0.9,0.4,1.7,1,2.4,1.6c0.8,0.8,1.4,1.7,1.7,2.7c0,0.1,0.1,0.2,0.1,0.3
		c0.2,0,0.3-0.1,0.3-0.2c0.1-0.3,0.2-0.5,0.3-0.8c0-0.1,0.1-0.2,0.2-0.3C93.1,2.1,93.3,2,93.6,2c0.3,0,0.6,0.1,0.9,0.2
		c0.5,0.2,1,0.1,1.4-0.2c1-0.6,2.1-1.1,3.3-1.3c0.3-0.1,0.6-0.1,0.9-0.2s0.5-0.3,0.4-0.6c-0.3-1.4-0.1-2.7,0.2-4.1
		c0.1-0.2,0.1-0.5,0.2-0.7c0.2-0.6,0.6-0.9,1.2-1c0.3,0,0.6,0,0.9,0.2s0.4,0.5,0.2,0.9c0,0.1-0.1,0.1-0.1,0.2c-0.8,1.2-1,2.6-0.7,4
		c0,0.1,0,0.1,0.1,0.2c0-0.1,0-0.1,0.1-0.2c0.1-0.5,0.2-1,0.3-1.5c0-0.1,0-0.1,0-0.2c0.1-0.2,0.2-0.4,0.5-0.3c0.3,0.1,0.7,0.2,1,0.4
		c0.4,0.2,0.5,0.6,0.5,1c-0.1,0.8-0.3,1.6-0.4,2.4c0,0.2-0.1,0.4-0.1,0.7c-0.1,0.3,0,0.6,0.1,0.8c0.3,0.5,0.7,0.8,1.2,1
		c0.1,0,0.2,0,0.3,0c0.4,0,0.6-0.1,0.7-0.6c0.1-0.5,0.2-0.9,0.3-1.4c0.5-2.2,1-4.5,1.5-6.7c0.4-2,0.8-4,1-6c0.1-0.5,0-0.9-0.4-1.3
		c-0.1,0-0.1-0.2,0-0.5c0.1-0.2,0.2-0.3,0.3-0.4c0.2-0.2,0.3-0.2,0.5-0.1c0.2,0.1,0.5,0.2,0.7,0.4c0.5,0.3,0.7,0.7,0.7,1.3
		c0,0.7,0,1.4-0.1,2.1c-0.2,2.5-0.8,4.9-1.3,7.4c-0.3,1.6-0.7,3.3-1,4.9c0,0.1,0,0.1,0,0.2s0,0.2,0.1,0.3c0.1,0.1,0.2,0,0.3,0
		c0.7-0.4,1.3-1,1.5-1.8c0.3-1,0.6-2,0.9-3c0.5-1.3,1.1-2.6,1.9-3.8c0.2-0.2,0.3-0.4,0.5-0.6c0.4-0.3,0.8-0.3,1.2-0.1
		c0.2,0.1,0.3,0.3,0.5,0.4c0.2,0.2,0.2,0.4,0.1,0.6c-0.1,0.2-0.2,0.3-0.3,0.5c-0.2,0.3-0.5,0.6-0.7,0.9c-0.3,0.4-0.5,0.9-0.5,1.4
		c0.1,1-0.2,2-0.7,2.9c-0.3,0.6-0.6,1.3-1,1.9c-0.4,0.7-0.6,1.4-0.7,2.2c0,0.3-0.1,0.5-0.1,0.8c0.1-0.1,0.2-0.1,0.2-0.1
		c0.1-0.1,0.3-0.2,0.4-0.2c0.5-0.2,0.9-0.3,1.4,0c0.3,0.2,0.6,0.3,0.9,0.5c0.5,0.4,1,0.8,1.6,1.2c0.4,0.3,0.8,0.5,1.2,0.8
		c0.2,0.1,0.5,0.2,0.7,0.3c1.7-1.5,3.7-2.6,5.7-3.6c1.3-0.6,2.6-1,3.9-1.4c0.5-0.1,0.8-0.4,0.8-0.9c0.2-1.1,0.6-2.1,1-3.1
		c0.1-0.2,0.2-0.4,0.2-0.7c0-0.1,0.1-0.2,0.1-0.3c0-0.2-0.1-0.4-0.3-0.4c0,0,0,0-0.1,0c-0.5,0-0.9-0.2-1.3-0.4
		C128.1-3,128-3.1,128-3.4c0-0.3,0.2-0.5,0.4-0.6c0.5-0.2,0.9-0.3,1.4-0.4c1-0.2,1.6-0.7,2.2-1.5c0.9-1.4,1.9-2.8,2.9-4.1
		c0.8-1,1.7-1.9,2.7-2.8c0.8-0.7,1.7-1.2,2.6-1.7c0.9-0.4,1.7-0.9,2.6-1.3c0.5-0.2,1-0.2,1.5,0c0.4,0.1,0.7,0.3,0.9,0.6
		c0.2,0.3,0.3,0.7,0.2,1.1c0,0.1-0.1,0.2-0.1,0.3c-1.2,2.9-3,5.3-5.6,7.2c-1.3,1-2.8,1.7-4.4,2.3c-0.4,0.1-0.8,0.3-1.2,0.5
		c-1.2,0.6-2,1.6-2.4,2.9c-0.3,0.8-0.5,1.6-0.8,2.4c-0.1,0.3-0.1,0.5-0.2,0.8c-0.1,0.6,0.1,1.2,0.6,1.5c0.4,0.2,0.7,0.6,0.9,1
		c0,0,0,0.1,0.1,0.1c0.1-0.1,0.2-0.2,0.2-0.2c0.1-0.1,0.2-0.2,0.3-0.3c0.2-0.2,0.4-0.2,0.6-0.1c0.3,0.2,0.7,0.4,0.9,0.7
		c0.2,0.3,0.3,0.6,0.3,1c0,0.7,0,1.4,0.1,2.1c0.1,0.5,0.3,1,0.6,1.4c0,0.1,0.1,0.1,0.2,0.3c0.1-0.4,0.2-0.8,0.2-1.1
		c0.2-1,0.4-2,0.6-3c0.3-1.8-0.8-3-2.3-3.2c-0.2,0-0.5,0-0.7-0.1c-0.2,0-0.4,0-0.5-0.1c-0.1,0-0.3-0.1-0.3-0.2
		c-0.1-0.2-0.1-0.4,0.1-0.5c0.5-0.2,0.8-0.5,1.1-0.9c0.5-0.5,1.1-0.5,1.7-0.4c0.3,0.1,0.6,0.1,0.9,0.2c1.4,0.4,2.2,1.4,2.2,2.8
		c0,0.7,0,1.3,0,2c0,0.2,0,0.3,0,0.6c0.1-0.1,0.1-0.2,0.1-0.2c0.1-0.2,0.1-0.4,0.2-0.5c0.2-0.4,0.4-0.5,0.8-0.4
		c0.7,0.2,1.1,0.8,1.1,1.6c0,0.5,0,0.9,0.1,1.4c0,0.2,0.1,0.3,0.2,0.5c0.2,0.5,0.8,0.7,1.3,0.4c0.2-0.1,0.4-0.3,0.6-0.5
		c0.7-0.9,1.1-2,1.3-3.1c0.1-0.4,0.1-0.9,0-1.3c0-0.3,0-0.7,0.1-1c0.1-0.5,0.1-0.9-0.2-1.4c-0.1-0.1,0-0.2,0.1-0.3
		c0.1-0.1,0.3-0.2,0.4-0.4c0.1-0.1,0.2,0,0.3,0c0.7,0.4,0.9,0.9,0.9,1.7c0,0.3,0,0.5,0,0.8s0.1,0.5,0.2,0.7c0.2,0,0.3-0.1,0.3-0.3
		c0-0.2,0-0.4,0.1-0.6c0.1-0.7,0.4-1.3,0.9-1.8c0.3-0.4,0.7-0.7,1-1.1c0.4-0.3,0.7-0.3,1,0c0.1,0.1,0.3,0.3,0.4,0.4
		c0.4,0.4,0.5,0.9,0.2,1.4c-0.2,0.5-0.5,1-0.7,1.5c-0.3,0.5-0.5,0.9-0.8,1.4c-0.5,0.8-0.6,1.6-0.7,2.5c0,0.3,0.2,0.5,0.5,0.4
		c0.7-0.2,1.4-0.4,2.1-0.8c0.5-0.3,0.9-0.8,1-1.4c0-0.1,0.1-0.2,0.1-0.3c0.1-0.5,0.4-1,0.7-1.4c0.2-0.2,0.5-0.4,0.7-0.6
		c0.3-0.2,0.4-0.2,0.7,0c0.1,0.1,0.2,0.2,0.3,0.4c0.3,0.4,0.3,0.7,0.1,1.1c-0.2,0.3-0.4,0.7-0.6,1c-0.1,0.2-0.2,0.5-0.3,0.7
		c0.2,0.2,0.4,0.1,0.5,0c0.6-0.3,1.3-0.4,2-0.3s1.3,0.4,1.8,1c0.2,0.2,0.4,0.5,0.6,0.7c0.2,0.4,0.6,0.6,1,0.5
		c0.6-0.1,1.2-0.1,1.8-0.1c1.4-0.1,2.8,0,4.3,0c2.1,0.1,4.3,0.2,6.4,0.1c0.4,0,0.6-0.1,0.9-0.4c1.4-1.6,1-4.1-0.7-5.2
		c-0.6-0.4-1.3-0.7-2.1-0.9c-0.5-0.1-0.9-0.2-1.4-0.4c-0.4-0.1-0.7-0.3-1.1-0.4c-1.1-0.6-1.4-2.2-0.6-3.2c0.6-0.8,1.3-1.4,2.2-2
		c1-0.6,2-1.2,3.1-1.8c1.8-0.9,3.6-1.8,5.4-2.7c0.4-0.2,0.7-0.1,1,0.2c0.1,0.2,0.2,0.3,0.4,0.5c0.2,0.3,0.2,0.6-0.1,0.8
		c-0.1,0-0.3,0.2-0.5,0.2c-0.7,0.3-1.4,0.6-2.1,0.9c-2.4,1-4.7,2.3-6.8,3.9c-0.3,0.2-0.6,0.5-0.9,0.8c-0.1,0.1-0.1,0.1-0.2,0.2
		c-0.1,0.2-0.1,0.4,0.1,0.5c0.1,0.1,0.2,0.1,0.3,0.1c0.7,0.2,1.4,0.4,2.1,0.6c0.8,0.3,1.6,0.6,2.2,1.2c0.8,0.6,1.3,1.4,1.6,2.4
		c0,0.1,0.1,0.2,0.1,0.4c0.2,0.4,0.4,0.4,0.6,0.1c0,0,0.1-0.1,0.1-0.2c0.7-1,1.6-1.7,2.6-2.4c0.2-0.2,0.5-0.3,0.7-0.5
		c1-0.7,2.2-0.5,3,0.4l0.1,0.1c0.1-0.1,0.2-0.2,0.3-0.3c0.3-0.3,0.7-0.3,0.9,0.1c0.1,0.1,0.1,0.3,0.2,0.4c0,0.1,0,0.2,0.1,0.2
		c0.1,0.1,0.1,0.2,0.2,0.2c0.1,0,0.2-0.1,0.3-0.2c0.2-0.2,0.3-0.5,0.5-0.7c0.3-0.3,0.5-0.3,0.8,0c0.2,0.3,0.4,0.6,0.6,0.9
		c0,0.1,0.1,0.2,0.1,0.2c0.1,0.1,0.2,0.2,0.3,0.2c0.2,0,0.2-0.1,0.3-0.3c0.1-0.2,0.1-0.4,0.2-0.6c0.3-0.5,0.9-0.5,1.2,0
		c0.4,0.7,0.6,1.5,0.6,2.3c0,1.4,0,2.9-0.1,4.3c-0.1,0.7-0.2,1.4-0.3,2.2c0,0.2,0,0.4-0.1,0.5c-0.1,0.4-0.2,0.5-0.5,0.5
		s-0.7-0.1-0.8-0.4c-0.1-0.2-0.1-0.5-0.1-0.7c0.2-1.9,0.2-3.8,0.2-5.8c0-0.1,0-0.1,0-0.2c-0.2,0-0.4,0.1-0.5,0.3
		c-0.1,0.1-0.1,0.2-0.1,0.4c-0.6,1.8-1,3.7-1.5,5.5c-0.1,0.4-0.2,0.7-0.3,1.1c0,0.1-0.1,0.2-0.1,0.4c-0.1,0.2-0.3,0.3-0.5,0.3
		c-0.6,0-1.1-0.4-1.1-1c0-0.2,0.1-0.5,0.1-0.7c0.4-1.1,0.7-2.2,1-3.4c0.2-0.9,0.3-1.7,0.3-2.6c0-0.1,0-0.1,0-0.2
		c-0.3,0.1-0.5,0.3-0.7,0.5c-0.3,0.3-0.4,0.7-0.5,1.1c-0.2,1.9-0.6,3.7-1.1,5.5c-0.1,0.2-0.1,0.4-0.1,0.6c-0.1,0.4-0.3,0.5-0.7,0.4
		c-0.7-0.1-1.1-0.5-1.2-1.2c-0.1-0.9-0.1-1.8,0.1-2.7c0.1-0.6,0.3-1.2,0.4-1.9c-0.1,0.1-0.2,0.1-0.3,0.2c-1,0.8-2,1.4-3.2,1.9
		c-0.4,0.2-0.9,0.3-1.3,0.5c-0.1,0-0.2,0-0.2,0.1c-0.2,0.1-0.3,0.2-0.2,0.4c0.2,0.4,0.5,0.6,0.9,0.6c0.5,0,1-0.2,1.5-0.5
		c0.4-0.3,0.8-0.7,1.1-1c0.1-0.1,0.2-0.2,0.4-0.2c0,0.1-0.1,0.1-0.1,0.2c-0.2,0.4-0.4,0.9-0.6,1.3c-0.2,0.5-0.5,0.9-0.9,1.3
		c-0.1,0.1-0.3,0.3-0.5,0.4c-0.5,0.3-1,0.3-1.5,0.1c-0.2-0.1-0.5-0.3-0.7-0.5c-0.4-0.4-0.7-0.7-1-1.1c-0.1-0.2-0.2-0.3-0.4-0.5
		s-0.3-0.2-0.5,0c-0.1,0.1-0.3,0.2-0.4,0.4c-1.9,2.1-4.3,3.3-7,3.8c-1.1,0.2-2.2,0.3-3.4,0.2c-0.8-0.1-1.6-0.2-2.5-0.3
		c-0.2,0-0.4,0-0.6,0c-0.3,0-0.5,0.1-0.6,0.4c-0.1,0.2-0.1,0.4-0.1,0.6c-0.5,4.4-1.5,8.6-2.9,12.7c0.6,1.3,0.4,2.3,0.1,3.3
		c-0.1,0.2-0.1,0.4-0.2,0.6c-0.2,0.4-0.5,0.5-0.9,0.4c-0.2-0.1-0.5-0.1-0.7-0.2c-0.3-0.1-0.5-0.4-0.4-0.8c0-0.3,0.1-0.5,0.2-0.8
		c0.4-1.2,0.9-2.4,1.3-3.7c0.8-2.5,1.6-5.1,2.1-7.7c0.2-1.2,0.4-2.5,0.6-3.7c0-0.2,0-0.5,0-0.7c0-0.8-0.3-1.4-0.8-2
		c-0.2-0.2-0.4-0.4-0.5-0.6c-0.5-0.7-0.5-1.3,0.1-1.9c0.2-0.2,0.4-0.4,0.6-0.6c0.4-0.3,0.4-0.5,0.3-0.8c-0.2-0.5-0.6-0.7-1-0.6
		c-0.3,0.1-0.6,0.2-0.9,0.3c-0.3,0.1-0.5,0.3-0.8,0.5s-0.5,0.3-0.8,0.4c-0.5,0.2-1,0.1-1.5-0.3s-0.5-0.4-1.1-0.1
		c-0.4,0.2-0.9,0.5-1.3,0.7c-0.2,0.1-0.5,0.2-0.7,0.4c-0.3,0.2-0.4,0.4-0.4,0.7c0,0.3,0,0.6,0,1c0,0.2,0,0.5,0,0.7
		c-0.1,0.5-0.5,0.7-1,0.6c-0.6-0.2-1.2-0.8-1.2-1.5c0-0.9-0.1-1.8-0.2-2.7C145.5,8.5,145.5,8.4,145.4,8.2z M113.1,21.4
		c0,0.2,0,0.4,0,0.6c0.1,1.2,0.7,1.8,1.8,1.9c1,0.1,1.9,0,2.9-0.4c3.7-1.5,6.4-4.1,7.9-7.9c0.6-1.6,1-3.4,1.3-5.1
		c0.3-1.8,0.6-3.6,1-5.3c0-0.1,0-0.2,0-0.3c0-0.2-0.1-0.3-0.3-0.2c-0.1,0-0.1,0-0.2,0.1c-1.6,0.6-3.2,1.3-4.7,2.3
		c-2.5,1.6-4.6,3.7-6.3,6.1c-0.9,1.3-1.8,2.7-2.5,4.2C113.5,18.7,113.2,20,113.1,21.4z M170.3,10.3c-0.1,0-0.2,0-0.3,0
		c-1.3-0.1-2.5-0.1-3.8-0.2c-2.3-0.2-4.5-0.2-6.8,0c-0.1,0-0.3,0-0.4,0.1c-0.2,0-0.3,0.1-0.3,0.3c0,0.1,0,0.2,0,0.3c0,0.5,0,1,0,1.6
		c0,0.1,0,0.2,0,0.3c0,0.3,0.2,0.4,0.5,0.5c0.4,0.1,0.7,0.2,1.1,0.3c0.6,0.1,1.1,0.2,1.7,0.2c1.1-0.1,2.1-0.4,3.2-0.7
		c1-0.3,1.9-0.6,2.8-1C168.9,11.5,169.6,11,170.3,10.3z M98.1,3.2c0.5-0.1,0.9,0,1.4,0.1c0.2,0.1,0.4,0.2,0.6,0.3
		c0.4,0.4,0.3,0.9-0.2,1.2c-0.1,0-0.2,0.1-0.2,0.1c-0.5,0.2-1.1,0.4-1.6,0.6c-0.4,0.2-0.9,0.4-1.3,0.6c-0.7,0.4-1.4,0.5-2.2,0.1
		c-0.2-0.1-0.3-0.2-0.5-0.3C94,6,94,6,94,6.1c-0.1,0.6-0.3,1.1-0.4,1.7s-0.1,1.2,0,1.8c0.1,0.5,0.4,0.6,0.8,0.5c0.1,0,0.1,0,0.1-0.1
		c0.5-0.2,1-0.5,1.5-0.7c1.2-0.6,2.1-1.5,2.9-2.6c0.1-0.1,0.2-0.3,0.3-0.4C99.4,6,99.7,6,100,6.2c0.2,0.1,0.4,0.3,0.6,0.5
		c0.1,0.1,0.2,0.2,0.4,0.2c0,0,0-0.1,0.1-0.1c0.3-1.3,0.6-2.5,0.8-3.8c0-0.2,0-0.4,0-0.6c-0.1-0.5-0.4-0.7-0.9-0.6
		c-0.9,0.3-1.8,0.6-2.6,1.1C98.3,3,98.2,3.1,98.1,3.2z M134.6-6.5c0.1,0,0.1,0,0.2-0.1c3.8-1.3,6.7-3.8,8.4-7.4
		c0-0.1,0.1-0.1,0.1-0.2c0-0.2-0.1-0.3-0.3-0.3c-0.1,0-0.1,0-0.2,0.1c-0.8,0.4-1.6,0.9-2.4,1.4c-2.3,1.7-4.1,3.8-5.6,6.2
		C134.8-6.7,134.7-6.6,134.6-6.5z M175.2,7.5c0.4,0,0.7,0,1-0.2c0.9-0.4,1.7-0.8,2.5-1.4c0.7-0.6,1.3-1.2,1.7-2.1
		c0.1-0.2,0.2-0.4,0.2-0.6c0-0.5-0.3-0.7-0.8-0.6c-0.1,0-0.1,0-0.1,0.1c-1.1,0.5-2.1,1.2-2.8,2.2c-0.6,0.8-1.1,1.7-1.5,2.5
		C175.2,7.3,175.2,7.4,175.2,7.5z"/>
	<path class="st0" d="M238.9,8.9c0.6-0.9,1.2-1.8,1.7-2.8c0.2-0.5,0.4-1,0.6-1.5c0-0.1,0.1-0.2,0.1-0.3c0.2-0.4,0.6-0.4,0.9-0.2
		c0.1,0,0.1,0.1,0.2,0.1c0.1-0.1,0.1-0.1,0.1-0.2c0.1-0.2,0.3-0.4,0.4-0.7c0.5-0.9,1.2-1.6,2-2.2c0.2-0.1,0.4-0.2,0.6-0.3
		c0.4-0.2,0.8,0,1,0.4c0.1,0.2,0.1,0.5,0.1,0.7c0,0.9-0.1,1.9-0.3,2.8s-0.4,1.8-0.5,2.7c-0.1,0.5-0.5,0.8-1.1,0.6
		c-0.5-0.2-0.9-0.7-0.8-1.3c0-0.3,0.1-0.6,0.2-0.9c0-0.2,0.1-0.5,0.1-0.7s0-0.4-0.1-0.6L244,4.6c-0.9,1.4-1.6,2.9-2,4.5
		c-0.1,0.3-0.1,0.6-0.2,0.9c-0.1,0.7,0.2,1.1,0.9,1.2c0.6,0.1,1.2,0.1,1.9,0.1c1.3,0,2.6-0.3,3.9-0.7c0.4-0.1,0.8-0.2,1.3-0.4
		c-0.3,0.8-0.6,1.5-1.4,1.9c-1.1,0.6-2.2,0.9-3.4,1.1c-0.7,0.1-1.4,0.2-2.1,0.1c-0.6,0-1.2-0.3-1.6-0.7c-0.5-0.5-0.8-1.1-1-1.7
		c-0.1-0.1-0.1-0.3-0.2-0.5c-0.2,0.1-0.3,0.2-0.4,0.4c-0.2,0.3-0.4,0.5-0.6,0.8c-0.3,0.3-0.7,0.4-1.1,0.2c-0.5-0.2-0.7-0.5-0.9-1
		c-0.2-0.6-0.3-1.2-0.3-1.8c0-0.4,0-0.9,0.1-1.3c0-0.3,0-0.6-0.1-0.9c-0.3,0.6-0.5,1.1-0.7,1.7c-0.2,0.7-0.4,1.4-0.7,2.1
		s-0.5,1.3-0.8,2c-0.1,0.1-0.1,0.3-0.2,0.4c-0.4,0.5-1,0.5-1.4,0c-0.2-0.3-0.4-0.7-0.3-1.2c0-0.2,0-0.4,0-0.5s0-0.1-0.1-0.2h-0.1
		c-1.4,0.5-2.8,0.9-4.2,1.2c-0.5,0.1-0.8,0.4-1.1,0.8c-0.1,0.1-0.2,0.3-0.3,0.4c-0.2,0.2-0.3,0.1-0.4-0.1c0-0.1-0.1-0.2-0.1-0.3
		c-0.1-0.3-0.2-0.4-0.6-0.4c-0.5,0.1-1,0.2-1.4,0.3c-0.5,0.1-1,0.2-1.5,0.3c-0.7,0.1-1.4-0.3-1.4-1.3c0-0.4,0.2-0.7,0.6-0.8
		c0.3-0.1,0.6-0.1,0.9-0.1c1.1-0.2,2.2-0.3,3.3-0.5c0.3,0,0.5-0.2,0.6-0.5c1-4.3,2.5-8.3,4.3-12.4c0.1-0.2,0.1-0.2,0-0.4
		c-0.1,0-0.2,0.1-0.3,0.1c-0.8,0.3-1.5,0.7-2.3,1.2c-0.7,0.4-1.4,0.9-2.1,1.4c-0.6,0.4-1.1,0.8-1.5,1.3c-0.1,0.1-0.2,0.2-0.4,0.3
		c-0.2,0.1-0.5,0.1-0.6,0c-0.2-0.2-0.1-0.3-0.1-0.5c0.1-0.3,0.2-0.5,0.3-0.8c0.2-0.6,0.6-1.1,1.1-1.5c0.3-0.2,0.5-0.4,0.8-0.6
		c0.8-0.5,1.6-0.9,2.3-1.3c0.8-0.5,1.6-0.9,2.5-1.1c0.4-0.1,0.9-0.3,1.3-0.6c1.4-0.8,2.9-1.2,4.5-1.5c0.4-0.1,0.9-0.1,1.3-0.1
		c0.4,0.1,0.6,0.2,0.9,0.5c0.2,0.2,0.3,0.5,0.6,0.8c-0.1,0-0.2,0-0.2,0c-1.2-0.2-2.4,0-3.6,0.4c-0.7,0.2-1.4,0.5-2.1,0.8
		c-0.1,0-0.2,0.1-0.2,0.1c-0.3,0.2-0.5,0.4-0.4,0.7c0.1,0.6-0.1,1.2-0.4,1.7c-0.8,1.5-1.5,3.2-2.1,4.8c-0.7,2-1.3,4-2,6
		c0,0.1-0.1,0.2-0.1,0.4c0,0.2,0.1,0.4,0.3,0.4c0.1,0,0.1,0,0.2,0c0.8-0.2,1.5-0.3,2.3-0.5c0.5-0.1,0.9-0.3,1.3-0.6
		c0.6-0.4,1-0.9,1.3-1.6c0.9-2,1.8-4.1,2.7-6.1c0-0.1,0.1-0.1,0.1-0.2C236.7,1,236.8,1,237,1c0.1,0,0.3,0.1,0.4,0.2
		c0.2,0.1,0.5,0.2,0.7,0.3c0.4,0.1,0.6,0.4,0.6,0.7c0,0.5,0.1,1,0,1.5c-0.1,0.9-0.2,1.8-0.3,2.7c-0.1,0.6-0.1,1.2-0.2,1.8
		C238.6,8.6,238.7,8.7,238.9,8.9z"/>
	<path class="st0" d="M201.5,9.1c-0.1,0.1-0.1,0.2-0.2,0.2c-0.4,0.4-0.7,0.7-1.1,1.1c-0.1,0.1-0.2,0.2-0.3,0.2
		c-0.2,0.1-0.4,0.1-0.6,0c-0.7-0.3-1-1-0.9-1.7c0.2-1,0.5-1.9,0.9-2.8c0.7-1.5,1.6-2.9,2.7-4.1c0.1-0.1,0.2-0.2,0.3-0.3
		c0.1-0.1,0.2-0.2,0.3-0.2c0.4-0.2,0.8,0.1,0.8,0.5c0.1,1,0.1,1.9-0.1,2.8c-0.2,1.3-0.3,2.6,0,3.9c0.1,0.4,0.2,0.8,0.3,1.1
		c0.3,0.8,0.9,0.9,1.6,0.5c1.2-0.8,1.9-1.9,2.1-3.4c0.1-0.7,0.2-1.3,0.3-2c0-0.2,0.1-0.4,0.3-0.6c0.4-0.4,0.9-0.3,1.1,0.2
		c0.1,0.2,0.1,0.4,0.1,0.6c0,0.6,0,1.1-0.1,1.7c0,0.5,0,1,0.3,1.5s0.2,1-0.3,1.4c-0.2,0.2-0.4,0.2-0.6,0c-0.1-0.1-0.2-0.2-0.2-0.3
		c-0.1-0.1-0.2-0.2-0.3-0.2c-0.2-0.2-0.4-0.1-0.5,0.1c0,0.1-0.1,0.2-0.1,0.2c-0.4,1.2-1.2,2-2.1,2.7c-0.6,0.4-1.2,0.4-1.8,0
		c-0.5-0.4-0.9-0.8-1.2-1.4c-0.2-0.4-0.3-0.8-0.5-1.2C201.8,9.5,201.7,9.3,201.5,9.1C201.6,9.1,201.6,9.1,201.5,9.1z M201.4,6.4
		L201.4,6.4c0-0.2,0-0.4,0-0.6s-0.1-0.3-0.3-0.2c-0.1,0-0.1,0.1-0.2,0.1c-0.2,0.2-0.4,0.4-0.6,0.7c-0.2,0.3-0.3,0.6-0.4,0.9
		c-0.1,0.2-0.1,0.5,0,0.8c0.1,0.3,0.4,0.4,0.7,0.3c0.4-0.2,0.7-0.4,0.7-0.8C201.3,7.2,201.4,6.8,201.4,6.4z"/>
	<path class="st0" d="M195.6,4.3c-0.1,0-0.2,0-0.3,0c-0.1,0.6-0.2,1.1-0.3,1.6c-0.3,1.7-0.7,3.4-1,5.1c0,0.2-0.1,0.4-0.1,0.6
		c-0.1,0.6-0.7,0.6-1.1,0.3c-0.4-0.4-0.5-0.9-0.4-1.4c0.3-1.6,0.6-3.2,1-4.8c0.3-1.5,0.6-3,0.9-4.5c0-0.1,0.1-0.2,0.1-0.3
		c0.1-0.3,0.3-0.4,0.6-0.4c0.2,0,0.4,0.1,0.5,0.4c0.1,0.5,0.3,0.9,0.8,1.2c0.6,0.5,0.9,1.2,1,2c0.2,1.6,0.2,3.3,0.1,4.9
		c0,0.4-0.1,0.8-0.1,1.2c0,0.2-0.1,0.4-0.2,0.6c-0.1,0.2-0.2,0.3-0.4,0.4c-0.3,0.1-0.6-0.1-0.6-0.4c0-0.1,0-0.2,0-0.4
		c0.1-1.3,0-2.5-0.1-3.8c0-0.6-0.1-1.2-0.1-1.8C195.7,4.7,195.7,4.5,195.6,4.3z"/>
	<path class="st0" d="M210.9,8.3c-0.1-0.1-0.1-0.1-0.2-0.1c-0.6-0.3-0.9-1-0.8-1.6c0-0.2,0.1-0.5,0.3-0.7c0.7-1.2,1.7-2.1,3.1-2.4
		c0.2,0,0.4-0.1,0.5-0.1c0.2,0,0.4,0.1,0.5,0.4c0,0.3,0.1,0.6,0,0.8c0,0.4-0.3,0.6-0.7,0.7s-0.8,0.3-1.1,0.5
		c-0.2,0.1-0.4,0.3-0.7,0.5c0,0,0,0,0,0.1c0.1,0,0.2,0,0.2,0c0.7,0,1.5,0,2.2,0c0.3,0,0.6,0.1,0.9,0.1c0.5,0.1,0.8,0.4,0.9,0.8
		c0.3,0.9,0.2,1.7-0.4,2.3c-0.6,0.6-1.2,1.1-2,1.4c-0.7,0.3-1.5,0.6-2.3,0.9c-0.2,0.1-0.4,0.1-0.6,0c-0.2-0.1-0.3-0.2-0.4-0.4
		c-0.1-0.2-0.1-0.3-0.2-0.5c-0.1-0.2,0-0.4,0.1-0.5s0.3-0.2,0.5-0.3c0.5-0.3,1.1-0.5,1.6-0.8c0.6-0.3,1.1-0.7,1.6-1.1
		c0,0,0.1-0.1,0.2-0.1C213.8,8,213.6,8,213.4,8c-0.5-0.1-0.9,0-1.4,0.1c-0.4,0.1-0.8,0.1-1.2,0.1C211.1,8.3,211,8.3,210.9,8.3
		L210.9,8.3z"/>
	<path class="st0" d="M218.1,9.9c0,0.8-0.3,1.5-0.7,2.1c-1.3,2.1-2.6,4.3-3.8,6.5c-0.5,0.8-1.1,1.4-1.7,2.1
		c-0.2,0.2-0.5,0.2-0.7,0.1c-0.2-0.1-0.2-0.3-0.2-0.5c0-0.1,0.1-0.2,0.1-0.2c1.6-3,3.3-6,4.9-8.9c0.3-0.6,0.7-1.2,1.2-1.7
		c0.1-0.2,0.3-0.3,0.5-0.2c0.2,0,0.3,0.2,0.4,0.4C218.1,9.6,218.1,9.8,218.1,9.9z"/>
	<path class="st0" d="M191.8,2.1c0,0.1,0,0.1,0,0.2c0.2,0.8,0.1,1.6,0,2.4c-0.2,1.7-0.5,3.3-1,4.9c-0.1,0.3-0.2,0.5-0.4,0.7
		c-0.2,0.3-0.5,0.3-0.7,0.2c-0.2-0.1-0.3-0.2-0.3-0.5c0-0.1,0-0.2,0-0.3c0.5-2.5,1-5,1.5-7.5c0-0.2,0.1-0.3,0.1-0.5
		c0-0.1,0.1-0.2,0.2-0.3c0.3-0.2,0.6,0,0.6,0.3C191.8,1.9,191.8,2,191.8,2.1L191.8,2.1z"/>
	<path class="st0" d="M255,11.3c0,0.7-0.5,1.1-1.2,1c-0.8-0.1-1.4-0.9-1.2-1.7c0.1-0.7,0.8-1,1.4-0.8C254.6,10.1,255,10.7,255,11.3z
		"/>
	<path class="st0" d="M210.9,8.3C210.9,8.3,211,8.3,210.9,8.3C211,8.4,211,8.4,210.9,8.3C211,8.4,210.9,8.3,210.9,8.3L210.9,8.3z"/>
</g>
</svg>
