<?xml version="1.0" encoding="utf-8"?>
<!-- Generator: Adobe Illustrator 19.0.0, SVG Export Plug-In . SVG Version: 6.00 Build 0)  -->
<!DOCTYPE svg PUBLIC "-//W3C//DTD SVG 1.1//EN" "http://www.w3.org/Graphics/SVG/1.1/DTD/svg11.dtd">
<svg version="1.1" id="Layer_1" xmlns="http://www.w3.org/2000/svg" xmlns:xlink="http://www.w3.org/1999/xlink" x="0px" y="0px"
	 viewBox="0 0 175 48" style="enable-background:new 0 0 175 48;" xml:space="preserve">
<g>
	<path d="M65.4,24.2c-0.3,0.1-0.5,0.4-0.7,0.7c-0.2,0.3-0.5,0.7-0.8,1c-0.2,0.2-0.4,0.4-0.6,0.5c-0.5,0.4-1.1,0.5-1.7,0.3
		c-0.4-0.2-0.8-0.4-1.1-0.6c-0.2-0.1-0.3-0.2-0.5-0.3c-0.3-0.1-0.4,0-0.5,0.2c0,0.1-0.1,0.2-0.1,0.3c-0.1,0.3-0.2,0.6-0.3,0.8
		c-0.3,0.5-0.5,1-0.8,1.4c-0.6,0.9-1.3,1-2.2,0.4c-0.3-0.2-0.6-0.5-0.8-0.9c-0.1-0.2-0.2-0.3-0.4-0.4c-1.4-0.9-2.2-2.2-2.5-3.8
		c-0.1-0.7-0.1-1.5-0.1-2.2c0-0.1,0-0.3,0-0.5c-0.1,0.1-0.2,0.2-0.3,0.2c-0.3,0.2-0.6,0.2-0.9,0c-0.2-0.1-0.3-0.3-0.5-0.4
		c-0.1-0.1-0.3-0.2-0.4-0.3c-0.2,0.4-0.4,0.8-0.4,1.2c-0.2,1-0.3,2-0.5,3.1c-0.3,1.7-0.5,3.5-0.9,5.2c-0.6,2.6-1.8,4.9-3.6,6.8
		c-2,2.1-4.3,3.5-7.1,4.2c-1.3,0.4-2.5,0.4-3.8-0.1c-0.8-0.3-1.5-0.8-2.1-1.5c-0.4-0.6-0.6-1.2-0.7-1.9c-0.1-0.8,0.1-1.6,0.2-2.3
		c0.1-0.6,0.3-1.2,0.6-1.8c0.5-1,0.9-2.1,1.4-3.1c0.5-1,1.1-1.9,1.9-2.7c0.7-0.8,1.3-1.6,1.9-2.4c0.2-0.3,0.2-0.4-0.1-0.6
		c-0.2-0.1-0.5-0.2-0.7-0.3c-0.7-0.3-1.3-0.7-1.9-1.2c-0.1-0.1-0.2-0.2-0.3-0.2c-0.2-0.1-0.4-0.1-0.6,0.2c-0.1,0.2-0.2,0.3-0.2,0.5
		c-0.2,1-0.5,2-0.7,3c0,0.2-0.1,0.3-0.2,0.5c-0.1,0.3-0.4,0.5-0.7,0.5c-0.7,0-1.3-0.3-1.6-1.1c-0.2-0.7-0.4-1.5-0.4-2.2
		c0-1.1,0.1-2.1,0.2-3.2c0-0.1,0-0.2,0-0.3c-0.6,0.2-1.2,0.4-1.6,0.8c-0.3,0.3-0.4,0.7-0.5,1c-0.2,1.1-0.4,2.2-0.5,3.3
		c-0.1,0.6-0.1,1.3-0.1,1.9c0,0.2,0,0.4,0,0.6c0,0.3-0.2,0.5-0.6,0.4c-0.1,0-0.2,0-0.3-0.1c-0.5-0.1-0.9-0.5-0.9-1
		c0-0.9,0-1.9,0.1-2.8c0.1-1,0.3-2,0.5-2.9c0.1-0.4,0-0.5-0.3-0.7c-0.6-0.3-1.1-0.6-1.7-0.8c-0.2-0.1-0.2,0-0.3,0.1
		c0,0.1-0.1,0.2-0.1,0.3c-0.5,2.1-1,4.2-1.5,6.4c-0.2,0.9-0.3,1.8-0.5,2.7c0,0.2,0,0.5,0,0.7c0,0.1,0,0.2,0,0.3
		c0,0.2-0.1,0.3-0.3,0.3c-0.4,0-0.7-0.1-1-0.4c-0.2-0.2-0.3-0.5-0.3-0.8c0.1-1.4,0.2-2.8,0.5-4.1c0.1-0.5,0.1-1,0.2-1.5
		c0-0.1,0-0.2,0-0.4c-0.2,0.1-0.3,0.2-0.4,0.3c-0.5,0.5-1.1,0.9-1.6,1.4c-0.9,0.8-2,1.3-3.1,1.9c-0.8,0.4-1.7,0.4-2.5-0.1
		c-0.2-0.1-0.5-0.3-0.7-0.5c-0.1-0.1-0.2-0.1-0.3-0.2c-0.2-0.1-0.3-0.1-0.4,0.1c0,0.1-0.1,0.1-0.1,0.2c-1.1,3.3-2.7,6.3-4.6,9.1
		c-1.3,1.9-2.7,3.9-4,5.8c-0.1,0.2-0.2,0.3-0.4,0.4c-0.2,0.2-0.5,0.3-0.9,0.3c-0.2,0-0.4,0-0.6-0.1c-0.5-0.1-0.8-0.6-0.6-1.1
		c0.1-0.2,0.2-0.4,0.3-0.5c1.9-2,3.4-4.3,4.9-6.7c1.3-2,2.4-4.2,3.4-6.5c0.5-1.3,1-2.6,1.2-4c0.2-1.5,0.3-3-0.2-4.5
		c-0.4-1.5-1.4-2.6-2.7-3.3c0,0-0.1,0-0.1-0.1c-0.3-0.1-0.5-0.1-0.6,0.2c-0.1,0.2-0.2,0.4-0.2,0.7c-0.9,3.1-1.8,6.3-2.7,9.4
		c-0.1,0.4-0.3,0.8-0.5,1.2c-0.2,0.3-0.4,0.4-0.7,0.3c-0.4-0.1-0.5-0.3-0.5-0.7c0-0.2,0-0.3,0.1-0.5c0.9-3.5,1.7-7,2.6-10.5
		c0-0.2,0.1-0.3,0.1-0.5c0-0.3-0.1-0.5-0.4-0.5c-0.4,0-0.8,0-1.2,0.1c-0.3,0-0.6,0.1-0.9,0.2c-0.5,0.1-1,0.1-1.5,0
		c-0.4-0.1-0.7-0.4-0.8-0.8c-0.1-0.3,0-0.5,0.2-0.6c0.1-0.1,0.2-0.1,0.3-0.2c0.9-0.3,1.7-0.8,2.5-1.3c0.8-0.5,1.5-1,2.3-1.4
		c0.5-0.3,0.9-0.8,1.1-1.3c0.1-0.3,0.2-0.7,0.3-1.1c0.4-1.3,0.8-2.6,1.2-3.9C8.2,4.6,8.4,4,8.6,3.5c0.3-0.9,0.9-1.2,1.8-1
		c0.4,0.1,0.5,0.3,0.5,0.6c0,0.6-0.1,1.1-0.3,1.7c-0.3,0.8-0.5,1.6-0.8,2.4c0,0.1-0.1,0.2-0.1,0.3C9.8,7.5,9.9,7.5,10,7.4
		c2.7-2,5.4-4.1,7.7-6.6c0.2-0.2,0.3-0.3,0.5-0.5C18.7,0,19.5,0.1,20,0.5c0.3,0.2,0.3,0.6,0.2,0.9c-0.1,0.2-0.3,0.3-0.4,0.5
		C17,4.3,14.2,6.7,11.4,9c-0.7,0.6-1.4,1.1-2.1,1.7c-0.6,0.4-1,0.9-1.2,1.6c-0.2,0.7-0.4,1.4-0.6,2.1c0,0.2,0,0.3,0.2,0.4
		c0.1,0.1,0.2,0.1,0.3,0.2c0.9,0.4,1.7,1,2.4,1.6c0.8,0.8,1.4,1.7,1.7,2.7c0,0.1,0.1,0.2,0.1,0.3c0.2,0,0.3-0.1,0.3-0.2
		c0.1-0.3,0.2-0.5,0.3-0.8c0-0.1,0.1-0.2,0.2-0.3c0.1-0.2,0.3-0.3,0.6-0.3c0.3,0,0.6,0.1,0.9,0.2c0.5,0.2,1,0.1,1.4-0.2
		c1-0.6,2.1-1.1,3.3-1.3c0.3-0.1,0.6-0.1,0.9-0.2c0.3-0.1,0.5-0.3,0.4-0.6c-0.3-1.4-0.1-2.7,0.2-4.1c0.1-0.2,0.1-0.5,0.2-0.7
		c0.2-0.6,0.6-0.9,1.2-1c0.3,0,0.6,0,0.9,0.2c0.3,0.2,0.4,0.5,0.2,0.9c0,0.1-0.1,0.1-0.1,0.2c-0.8,1.2-1,2.6-0.7,4
		c0,0.1,0,0.1,0.1,0.2c0-0.1,0-0.1,0.1-0.2c0.1-0.5,0.2-1,0.3-1.5c0-0.1,0-0.1,0-0.2c0.1-0.2,0.2-0.4,0.5-0.3c0.3,0.1,0.7,0.2,1,0.4
		c0.4,0.2,0.5,0.6,0.5,1c-0.1,0.8-0.3,1.6-0.4,2.4c0,0.2-0.1,0.4-0.1,0.7c-0.1,0.3,0,0.6,0.1,0.8c0.3,0.5,0.7,0.8,1.2,1
		c0.1,0,0.2,0,0.3,0c0.4,0,0.6-0.1,0.7-0.6c0.1-0.5,0.2-0.9,0.3-1.4c0.5-2.2,1-4.5,1.5-6.7c0.4-2,0.8-4,1-6c0.1-0.5,0-0.9-0.4-1.3
		C29,3.7,29,3.5,29.1,3.2c0.1-0.2,0.2-0.3,0.3-0.4c0.2-0.2,0.3-0.2,0.5-0.1c0.2,0.1,0.5,0.2,0.7,0.4c0.5,0.3,0.7,0.7,0.7,1.3
		c0,0.7,0,1.4-0.1,2.1c-0.2,2.5-0.8,4.9-1.3,7.4c-0.3,1.6-0.7,3.3-1,4.9c0,0.1,0,0.1,0,0.2c0,0.1,0,0.2,0.1,0.3c0.1,0.1,0.2,0,0.3,0
		c0.7-0.4,1.3-1,1.5-1.8c0.3-1,0.6-2,0.9-3c0.5-1.3,1.1-2.6,1.9-3.8c0.2-0.2,0.3-0.4,0.5-0.6c0.4-0.3,0.8-0.3,1.2-0.1
		c0.2,0.1,0.3,0.3,0.5,0.4c0.2,0.2,0.2,0.4,0.1,0.6c-0.1,0.2-0.2,0.3-0.3,0.5c-0.2,0.3-0.5,0.6-0.7,0.9c-0.3,0.4-0.5,0.9-0.5,1.4
		c0.1,1-0.2,2-0.7,2.9c-0.3,0.6-0.6,1.3-1,1.9c-0.4,0.7-0.6,1.4-0.7,2.2c0,0.3-0.1,0.5-0.1,0.8c0.1-0.1,0.2-0.1,0.2-0.1
		c0.1-0.1,0.3-0.2,0.4-0.2c0.5-0.2,0.9-0.3,1.4,0c0.3,0.2,0.6,0.3,0.9,0.5c0.5,0.4,1,0.8,1.6,1.2c0.4,0.3,0.8,0.5,1.2,0.8
		c0.2,0.1,0.5,0.2,0.7,0.3c1.7-1.5,3.7-2.6,5.7-3.6c1.3-0.6,2.6-1,3.9-1.4c0.5-0.1,0.8-0.4,0.8-0.9c0.2-1.1,0.6-2.1,1-3.1
		c0.1-0.2,0.2-0.4,0.2-0.7c0-0.1,0.1-0.2,0.1-0.3c0-0.2-0.1-0.4-0.3-0.4c0,0,0,0-0.1,0c-0.5,0-0.9-0.2-1.3-0.4
		C48.1,13,48,12.9,48,12.6c0-0.3,0.2-0.5,0.4-0.6c0.5-0.2,0.9-0.3,1.4-0.4c1-0.2,1.6-0.7,2.2-1.5c0.9-1.4,1.9-2.8,2.9-4.1
		c0.8-1,1.7-1.9,2.7-2.8c0.8-0.7,1.7-1.2,2.6-1.7c0.9-0.4,1.7-0.9,2.6-1.3c0.5-0.2,1-0.2,1.5,0c0.4,0.1,0.7,0.3,0.9,0.6
		c0.2,0.3,0.3,0.7,0.2,1.1c0,0.1-0.1,0.2-0.1,0.3c-1.2,2.9-3,5.3-5.6,7.2c-1.3,1-2.8,1.7-4.4,2.3c-0.4,0.1-0.8,0.3-1.2,0.5
		c-1.2,0.6-2,1.6-2.4,2.9c-0.3,0.8-0.5,1.6-0.8,2.4c-0.1,0.3-0.1,0.5-0.2,0.8c-0.1,0.6,0.1,1.2,0.6,1.5c0.4,0.2,0.7,0.6,0.9,1
		c0,0,0,0.1,0.1,0.1c0.1-0.1,0.2-0.2,0.2-0.2c0.1-0.1,0.2-0.2,0.3-0.3c0.2-0.2,0.4-0.2,0.6-0.1c0.3,0.2,0.7,0.4,0.9,0.7
		c0.2,0.3,0.3,0.6,0.3,1c0,0.7,0,1.4,0.1,2.1c0.1,0.5,0.3,1,0.6,1.4c0,0.1,0.1,0.1,0.2,0.3c0.1-0.4,0.2-0.8,0.2-1.1
		c0.2-1,0.4-2,0.6-3c0.3-1.8-0.8-3-2.3-3.2c-0.2,0-0.5,0-0.7-0.1c-0.2,0-0.4,0-0.5-0.1c-0.1,0-0.3-0.1-0.3-0.2
		c-0.1-0.2-0.1-0.4,0.1-0.5c0.5-0.2,0.8-0.5,1.1-0.9c0.5-0.5,1.1-0.5,1.7-0.4c0.3,0.1,0.6,0.1,0.9,0.2c1.4,0.4,2.2,1.4,2.2,2.8
		c0,0.7,0,1.3,0,2c0,0.2,0,0.3,0,0.6c0.1-0.1,0.1-0.2,0.1-0.2c0.1-0.2,0.1-0.4,0.2-0.5c0.2-0.4,0.4-0.5,0.8-0.4
		c0.7,0.2,1.1,0.8,1.1,1.6c0,0.5,0,0.9,0.1,1.4c0,0.2,0.1,0.3,0.2,0.5c0.2,0.5,0.8,0.7,1.3,0.4c0.2-0.1,0.4-0.3,0.6-0.5
		c0.7-0.9,1.1-2,1.3-3.1c0.1-0.4,0.1-0.9,0-1.3c0-0.3,0-0.7,0.1-1c0.1-0.5,0.1-0.9-0.2-1.4c-0.1-0.1,0-0.2,0.1-0.3
		c0.1-0.1,0.3-0.2,0.4-0.4c0.1-0.1,0.2,0,0.3,0c0.7,0.4,0.9,0.9,0.9,1.7c0,0.3,0,0.5,0,0.8c0,0.3,0.1,0.5,0.2,0.7
		c0.2,0,0.3-0.1,0.3-0.3c0-0.2,0-0.4,0.1-0.6c0.1-0.7,0.4-1.3,0.9-1.8c0.3-0.4,0.7-0.7,1-1.1c0.4-0.3,0.7-0.3,1,0
		c0.1,0.1,0.3,0.3,0.4,0.4c0.4,0.4,0.5,0.9,0.2,1.4c-0.2,0.5-0.5,1-0.7,1.5c-0.3,0.5-0.5,0.9-0.8,1.4c-0.5,0.8-0.6,1.6-0.7,2.5
		c0,0.3,0.2,0.5,0.5,0.4c0.7-0.2,1.4-0.4,2.1-0.8c0.5-0.3,0.9-0.8,1-1.4c0-0.1,0.1-0.2,0.1-0.3c0.1-0.5,0.4-1,0.7-1.4
		c0.2-0.2,0.5-0.4,0.7-0.6c0.3-0.2,0.4-0.2,0.7,0c0.1,0.1,0.2,0.2,0.3,0.4c0.3,0.4,0.3,0.7,0.1,1.1c-0.2,0.3-0.4,0.7-0.6,1
		c-0.1,0.2-0.2,0.5-0.3,0.7c0.2,0.2,0.4,0.1,0.5,0c0.6-0.3,1.3-0.4,2-0.3c0.7,0.1,1.3,0.4,1.8,1c0.2,0.2,0.4,0.5,0.6,0.7
		c0.2,0.4,0.6,0.6,1,0.5c0.6-0.1,1.2-0.1,1.8-0.1c1.4-0.1,2.8,0,4.3,0c2.1,0.1,4.3,0.2,6.4,0.1c0.4,0,0.6-0.1,0.9-0.4
		c1.4-1.6,1-4.1-0.7-5.2c-0.6-0.4-1.3-0.7-2.1-0.9c-0.5-0.1-0.9-0.2-1.4-0.4c-0.4-0.1-0.7-0.3-1.1-0.4c-1.1-0.6-1.4-2.2-0.6-3.2
		c0.6-0.8,1.3-1.4,2.2-2c1-0.6,2-1.2,3.1-1.8c1.8-0.9,3.6-1.8,5.4-2.7c0.4-0.2,0.7-0.1,1,0.2c0.1,0.2,0.2,0.3,0.4,0.5
		c0.2,0.3,0.2,0.6-0.1,0.8C98.3,8.8,98.1,9,97.9,9c-0.7,0.3-1.4,0.6-2.1,0.9c-2.4,1-4.7,2.3-6.8,3.9c-0.3,0.2-0.6,0.5-0.9,0.8
		c-0.1,0.1-0.1,0.1-0.2,0.2c-0.1,0.2-0.1,0.4,0.1,0.5c0.1,0.1,0.2,0.1,0.3,0.1c0.7,0.2,1.4,0.4,2.1,0.6c0.8,0.3,1.6,0.6,2.2,1.2
		c0.8,0.6,1.3,1.4,1.6,2.4c0,0.1,0.1,0.2,0.1,0.4c0.2,0.4,0.4,0.4,0.6,0.1c0,0,0.1-0.1,0.1-0.2c0.7-1,1.6-1.7,2.6-2.4
		c0.2-0.2,0.5-0.3,0.7-0.5c1-0.7,2.2-0.5,3,0.4c0,0,0.1,0.1,0.1,0.1c0.1-0.1,0.2-0.2,0.3-0.3c0.3-0.3,0.7-0.3,0.9,0.1
		c0.1,0.1,0.1,0.3,0.2,0.4c0,0.1,0,0.2,0.1,0.2c0.1,0.1,0.1,0.2,0.2,0.2c0.1,0,0.2-0.1,0.3-0.2c0.2-0.2,0.3-0.5,0.5-0.7
		c0.3-0.3,0.5-0.3,0.8,0c0.2,0.3,0.4,0.6,0.6,0.9c0,0.1,0.1,0.2,0.1,0.2c0.1,0.1,0.2,0.2,0.3,0.2c0.2,0,0.2-0.1,0.3-0.3
		c0.1-0.2,0.1-0.4,0.2-0.6c0.3-0.5,0.9-0.5,1.2,0c0.4,0.7,0.6,1.5,0.6,2.3c0,1.4,0,2.9-0.1,4.3c-0.1,0.7-0.2,1.4-0.3,2.2
		c0,0.2,0,0.4-0.1,0.5c-0.1,0.4-0.2,0.5-0.5,0.5c-0.3,0-0.7-0.1-0.8-0.4c-0.1-0.2-0.1-0.5-0.1-0.7c0.2-1.9,0.2-3.8,0.2-5.8
		c0-0.1,0-0.1,0-0.2c-0.2,0-0.4,0.1-0.5,0.3c-0.1,0.1-0.1,0.2-0.1,0.4c-0.6,1.8-1,3.7-1.5,5.5c-0.1,0.4-0.2,0.7-0.3,1.1
		c0,0.1-0.1,0.2-0.1,0.4c-0.1,0.2-0.3,0.3-0.5,0.3c-0.6,0-1.1-0.4-1.1-1c0-0.2,0.1-0.5,0.1-0.7c0.4-1.1,0.7-2.2,1-3.4
		c0.2-0.9,0.3-1.7,0.3-2.6c0-0.1,0-0.1,0-0.2c-0.3,0.1-0.5,0.3-0.7,0.5c-0.3,0.3-0.4,0.7-0.5,1.1c-0.2,1.9-0.6,3.7-1.1,5.5
		c-0.1,0.2-0.1,0.4-0.1,0.6c-0.1,0.4-0.3,0.5-0.7,0.4c-0.7-0.1-1.1-0.5-1.2-1.2c-0.1-0.9-0.1-1.8,0.1-2.7c0.1-0.6,0.3-1.2,0.4-1.9
		c-0.1,0.1-0.2,0.1-0.3,0.2c-1,0.8-2,1.4-3.2,1.9c-0.4,0.2-0.9,0.3-1.3,0.5c-0.1,0-0.2,0-0.2,0.1c-0.2,0.1-0.3,0.2-0.2,0.4
		c0.2,0.4,0.5,0.6,0.9,0.6c0.5,0,1-0.2,1.5-0.5c0.4-0.3,0.8-0.7,1.1-1c0.1-0.1,0.2-0.2,0.4-0.2c0,0.1-0.1,0.1-0.1,0.2
		c-0.2,0.4-0.4,0.9-0.6,1.3c-0.2,0.5-0.5,0.9-0.9,1.3c-0.1,0.1-0.3,0.3-0.5,0.4c-0.5,0.3-1,0.3-1.5,0.1c-0.2-0.1-0.5-0.3-0.7-0.5
		c-0.4-0.4-0.7-0.7-1-1.1c-0.1-0.2-0.2-0.3-0.4-0.5c-0.2-0.2-0.3-0.2-0.5,0c-0.1,0.1-0.3,0.2-0.4,0.4c-1.9,2.1-4.3,3.3-7,3.8
		c-1.1,0.2-2.2,0.3-3.4,0.2c-0.8-0.1-1.6-0.2-2.5-0.3c-0.2,0-0.4,0-0.6,0c-0.3,0-0.5,0.1-0.6,0.4c-0.1,0.2-0.1,0.4-0.1,0.6
		c-0.5,4.4-1.5,8.6-2.9,12.7C75.4,45,75.2,46,74.9,47c-0.1,0.2-0.1,0.4-0.2,0.6c-0.2,0.4-0.5,0.5-0.9,0.4c-0.2-0.1-0.5-0.1-0.7-0.2
		c-0.3-0.1-0.5-0.4-0.4-0.8c0-0.3,0.1-0.5,0.2-0.8c0.4-1.2,0.9-2.4,1.3-3.7c0.8-2.5,1.6-5.1,2.1-7.7c0.2-1.2,0.4-2.5,0.6-3.7
		c0-0.2,0-0.5,0-0.7c0-0.8-0.3-1.4-0.8-2c-0.2-0.2-0.4-0.4-0.5-0.6c-0.5-0.7-0.5-1.3,0.1-1.9c0.2-0.2,0.4-0.4,0.6-0.6
		c0.4-0.3,0.4-0.5,0.3-0.8c-0.2-0.5-0.6-0.7-1-0.6c-0.3,0.1-0.6,0.2-0.9,0.3c-0.3,0.1-0.5,0.3-0.8,0.5c-0.3,0.2-0.5,0.3-0.8,0.4
		c-0.5,0.2-1,0.1-1.5-0.3c-0.5-0.4-0.5-0.4-1.1-0.1c-0.4,0.2-0.9,0.5-1.3,0.7c-0.2,0.1-0.5,0.2-0.7,0.4c-0.3,0.2-0.4,0.4-0.4,0.7
		c0,0.3,0,0.6,0,1c0,0.2,0,0.5,0,0.7c-0.1,0.5-0.5,0.7-1,0.6c-0.6-0.2-1.2-0.8-1.2-1.5c0-0.9-0.1-1.8-0.2-2.7
		C65.5,24.5,65.5,24.4,65.4,24.2z M33.1,37.4c0,0.2,0,0.4,0,0.6c0.1,1.2,0.7,1.8,1.8,1.9c1,0.1,1.9,0,2.9-0.4
		c3.7-1.5,6.4-4.1,7.9-7.9c0.6-1.6,1-3.4,1.3-5.1c0.3-1.8,0.6-3.6,1-5.3c0-0.1,0-0.2,0-0.3c0-0.2-0.1-0.3-0.3-0.2
		c-0.1,0-0.1,0-0.2,0.1c-1.6,0.6-3.2,1.3-4.7,2.3c-2.5,1.6-4.6,3.7-6.3,6.1c-0.9,1.3-1.8,2.7-2.5,4.2C33.5,34.7,33.2,36,33.1,37.4z
		 M90.3,26.3c-0.1,0-0.2,0-0.3,0c-1.3-0.1-2.5-0.1-3.8-0.2c-2.3-0.2-4.5-0.2-6.8,0c-0.1,0-0.3,0-0.4,0.1c-0.2,0-0.3,0.1-0.3,0.3
		c0,0.1,0,0.2,0,0.3c0,0.5,0,1,0,1.6c0,0.1,0,0.2,0,0.3c0,0.3,0.2,0.4,0.5,0.5c0.4,0.1,0.7,0.2,1.1,0.3c0.6,0.1,1.1,0.2,1.7,0.2
		c1.1-0.1,2.1-0.4,3.2-0.7c1-0.3,1.9-0.6,2.8-1C88.9,27.5,89.6,27,90.3,26.3z M18.1,19.2c0.5-0.1,0.9,0,1.4,0.1
		c0.2,0.1,0.4,0.2,0.6,0.3c0.4,0.4,0.3,0.9-0.2,1.2c-0.1,0-0.2,0.1-0.2,0.1c-0.5,0.2-1.1,0.4-1.6,0.6c-0.4,0.2-0.9,0.4-1.3,0.6
		c-0.7,0.4-1.4,0.5-2.2,0.1c-0.2-0.1-0.3-0.2-0.5-0.3C14,22,14,22,14,22.1c-0.1,0.6-0.3,1.1-0.4,1.7c-0.1,0.6-0.1,1.2,0,1.8
		c0.1,0.5,0.4,0.6,0.8,0.5c0.1,0,0.1,0,0.1-0.1c0.5-0.2,1-0.5,1.5-0.7c1.2-0.6,2.1-1.5,2.9-2.6c0.1-0.1,0.2-0.3,0.3-0.4
		c0.2-0.3,0.5-0.3,0.8-0.1c0.2,0.1,0.4,0.3,0.6,0.5c0.1,0.1,0.2,0.2,0.4,0.2c0,0,0-0.1,0.1-0.1c0.3-1.3,0.6-2.5,0.8-3.8
		c0-0.2,0-0.4,0-0.6c-0.1-0.5-0.4-0.7-0.9-0.6c-0.9,0.3-1.8,0.6-2.6,1.1C18.3,19,18.2,19.1,18.1,19.2z M54.6,9.5
		c0.1,0,0.1,0,0.2-0.1c3.8-1.3,6.7-3.8,8.4-7.4c0-0.1,0.1-0.1,0.1-0.2c0-0.2-0.1-0.3-0.3-0.3c-0.1,0-0.1,0-0.2,0.1
		C62,2,61.2,2.5,60.4,3c-2.3,1.7-4.1,3.8-5.6,6.2C54.8,9.3,54.7,9.4,54.6,9.5z M95.2,23.5c0.4,0,0.7,0,1-0.2
		c0.9-0.4,1.7-0.8,2.5-1.4c0.7-0.6,1.3-1.2,1.7-2.1c0.1-0.2,0.2-0.4,0.2-0.6c0-0.5-0.3-0.7-0.8-0.6c-0.1,0-0.1,0-0.1,0.1
		c-1.1,0.5-2.1,1.2-2.8,2.2c-0.6,0.8-1.1,1.7-1.5,2.5C95.2,23.3,95.2,23.4,95.2,23.5z"/>
	<path d="M158.9,24.9c0.6-0.9,1.2-1.8,1.7-2.8c0.2-0.5,0.4-1,0.6-1.5c0-0.1,0.1-0.2,0.1-0.3c0.2-0.4,0.6-0.4,0.9-0.2
		c0.1,0,0.1,0.1,0.2,0.1c0.1-0.1,0.1-0.1,0.1-0.2c0.1-0.2,0.3-0.4,0.4-0.7c0.5-0.9,1.2-1.6,2-2.2c0.2-0.1,0.4-0.2,0.6-0.3
		c0.4-0.2,0.8,0,1,0.4c0.1,0.2,0.1,0.5,0.1,0.7c0,0.9-0.1,1.9-0.3,2.8c-0.2,0.9-0.4,1.8-0.5,2.7c-0.1,0.5-0.5,0.8-1.1,0.6
		c-0.5-0.2-0.9-0.7-0.8-1.3c0-0.3,0.1-0.6,0.2-0.9c0-0.2,0.1-0.5,0.1-0.7c0-0.2,0-0.4-0.1-0.6c0,0-0.1,0.1-0.1,0.1
		c-0.9,1.4-1.6,2.9-2,4.5c-0.1,0.3-0.1,0.6-0.2,0.9c-0.1,0.7,0.2,1.1,0.9,1.2c0.6,0.1,1.2,0.1,1.9,0.1c1.3,0,2.6-0.3,3.9-0.7
		c0.4-0.1,0.8-0.2,1.3-0.4c-0.3,0.8-0.6,1.5-1.4,1.9c-1.1,0.6-2.2,0.9-3.4,1.1c-0.7,0.1-1.4,0.2-2.1,0.1c-0.6,0-1.2-0.3-1.6-0.7
		c-0.5-0.5-0.8-1.1-1-1.7c-0.1-0.1-0.1-0.3-0.2-0.5c-0.2,0.1-0.3,0.2-0.4,0.4c-0.2,0.3-0.4,0.5-0.6,0.8c-0.3,0.3-0.7,0.4-1.1,0.2
		c-0.5-0.2-0.7-0.5-0.9-1c-0.2-0.6-0.3-1.2-0.3-1.8c0-0.4,0-0.9,0.1-1.3c0-0.3,0-0.6-0.1-0.9c-0.3,0.6-0.5,1.1-0.7,1.7
		c-0.2,0.7-0.4,1.4-0.7,2.1c-0.3,0.7-0.5,1.3-0.8,2c-0.1,0.1-0.1,0.3-0.2,0.4c-0.4,0.5-1,0.5-1.4,0c-0.2-0.3-0.4-0.7-0.3-1.2
		c0-0.2,0-0.4,0-0.5c0-0.1,0-0.1-0.1-0.2c0,0-0.1,0-0.1,0c-1.4,0.5-2.8,0.9-4.2,1.2c-0.5,0.1-0.8,0.4-1.1,0.8
		c-0.1,0.1-0.2,0.3-0.3,0.4c-0.2,0.2-0.3,0.1-0.4-0.1c0-0.1-0.1-0.2-0.1-0.3c-0.1-0.3-0.2-0.4-0.6-0.4c-0.5,0.1-1,0.2-1.4,0.3
		c-0.5,0.1-1,0.2-1.5,0.3c-0.7,0.1-1.4-0.3-1.4-1.3c0-0.4,0.2-0.7,0.6-0.8c0.3-0.1,0.6-0.1,0.9-0.1c1.1-0.2,2.2-0.3,3.3-0.5
		c0.3,0,0.5-0.2,0.6-0.5c1-4.3,2.5-8.3,4.3-12.4c0.1-0.2,0.1-0.2,0-0.4c-0.1,0-0.2,0.1-0.3,0.1c-0.8,0.3-1.5,0.7-2.3,1.2
		c-0.7,0.4-1.4,0.9-2.1,1.4c-0.6,0.4-1.1,0.8-1.5,1.3c-0.1,0.1-0.2,0.2-0.4,0.3c-0.2,0.1-0.5,0.1-0.6,0c-0.2-0.2-0.1-0.3-0.1-0.5
		c0.1-0.3,0.2-0.5,0.3-0.8c0.2-0.6,0.6-1.1,1.1-1.5c0.3-0.2,0.5-0.4,0.8-0.6c0.8-0.5,1.6-0.9,2.3-1.3c0.8-0.5,1.6-0.9,2.5-1.1
		c0.4-0.1,0.9-0.3,1.3-0.6c1.4-0.8,2.9-1.2,4.5-1.5c0.4-0.1,0.9-0.1,1.3-0.1c0.4,0.1,0.6,0.2,0.9,0.5c0.2,0.2,0.3,0.5,0.6,0.8
		c-0.1,0-0.2,0-0.2,0c-1.2-0.2-2.4,0-3.6,0.4c-0.7,0.2-1.4,0.5-2.1,0.8c-0.1,0-0.2,0.1-0.2,0.1c-0.3,0.2-0.5,0.4-0.4,0.7
		c0.1,0.6-0.1,1.2-0.4,1.7c-0.8,1.5-1.5,3.2-2.1,4.8c-0.7,2-1.3,4-2,6c0,0.1-0.1,0.2-0.1,0.4c0,0.2,0.1,0.4,0.3,0.4
		c0.1,0,0.1,0,0.2,0c0.8-0.2,1.5-0.3,2.3-0.5c0.5-0.1,0.9-0.3,1.3-0.6c0.6-0.4,1-0.9,1.3-1.6c0.9-2,1.8-4.1,2.7-6.1
		c0-0.1,0.1-0.1,0.1-0.2c0.1-0.2,0.2-0.2,0.4-0.2c0.1,0,0.3,0.1,0.4,0.2c0.2,0.1,0.5,0.2,0.7,0.3c0.4,0.1,0.6,0.4,0.6,0.7
		c0,0.5,0.1,1,0,1.5c-0.1,0.9-0.2,1.8-0.3,2.7c-0.1,0.6-0.1,1.2-0.2,1.8C158.6,24.6,158.7,24.7,158.9,24.9z"/>
	<path d="M121.5,25.1c-0.1,0.1-0.1,0.2-0.2,0.2c-0.4,0.4-0.7,0.7-1.1,1.1c-0.1,0.1-0.2,0.2-0.3,0.2c-0.2,0.1-0.4,0.1-0.6,0
		c-0.7-0.3-1-1-0.9-1.7c0.2-1,0.5-1.9,0.9-2.8c0.7-1.5,1.6-2.9,2.7-4.1c0.1-0.1,0.2-0.2,0.3-0.3c0.1-0.1,0.2-0.2,0.3-0.2
		c0.4-0.2,0.8,0.1,0.8,0.5c0.1,1,0.1,1.9-0.1,2.8c-0.2,1.3-0.3,2.6,0,3.9c0.1,0.4,0.2,0.8,0.3,1.1c0.3,0.8,0.9,0.9,1.6,0.5
		c1.2-0.8,1.9-1.9,2.1-3.4c0.1-0.7,0.2-1.3,0.3-2c0-0.2,0.1-0.4,0.3-0.6c0.4-0.4,0.9-0.3,1.1,0.2c0.1,0.2,0.1,0.4,0.1,0.6
		c0,0.6,0,1.1-0.1,1.7c0,0.5,0,1,0.3,1.5c0.3,0.5,0.2,1-0.3,1.4c-0.2,0.2-0.4,0.2-0.6,0c-0.1-0.1-0.2-0.2-0.2-0.3
		c-0.1-0.1-0.2-0.2-0.3-0.2c-0.2-0.2-0.4-0.1-0.5,0.1c0,0.1-0.1,0.2-0.1,0.2c-0.4,1.2-1.2,2-2.1,2.7c-0.6,0.4-1.2,0.4-1.8,0
		c-0.5-0.4-0.9-0.8-1.2-1.4c-0.2-0.4-0.3-0.8-0.5-1.2C121.8,25.5,121.7,25.3,121.5,25.1C121.6,25.1,121.6,25.1,121.5,25.1z
		 M121.4,22.4C121.4,22.4,121.4,22.4,121.4,22.4c0-0.2,0-0.4,0-0.6c0-0.2-0.1-0.3-0.3-0.2c-0.1,0-0.1,0.1-0.2,0.1
		c-0.2,0.2-0.4,0.4-0.6,0.7c-0.2,0.3-0.3,0.6-0.4,0.9c-0.1,0.2-0.1,0.5,0,0.8c0.1,0.3,0.4,0.4,0.7,0.3c0.4-0.2,0.7-0.4,0.7-0.8
		C121.3,23.2,121.4,22.8,121.4,22.4z"/>
	<path d="M115.6,20.3c-0.1,0-0.2,0-0.3,0c-0.1,0.6-0.2,1.1-0.3,1.6c-0.3,1.7-0.7,3.4-1,5.1c0,0.2-0.1,0.4-0.1,0.6
		c-0.1,0.6-0.7,0.6-1.1,0.3c-0.4-0.4-0.5-0.9-0.4-1.4c0.3-1.6,0.6-3.2,1-4.8c0.3-1.5,0.6-3,0.9-4.5c0-0.1,0.1-0.2,0.1-0.3
		c0.1-0.3,0.3-0.4,0.6-0.4c0.2,0,0.4,0.1,0.5,0.4c0.1,0.5,0.3,0.9,0.8,1.2c0.6,0.5,0.9,1.2,1,2c0.2,1.6,0.2,3.3,0.1,4.9
		c0,0.4-0.1,0.8-0.1,1.2c0,0.2-0.1,0.4-0.2,0.6c-0.1,0.2-0.2,0.3-0.4,0.4c-0.3,0.1-0.6-0.1-0.6-0.4c0-0.1,0-0.2,0-0.4
		c0.1-1.3,0-2.5-0.1-3.8c0-0.6-0.1-1.2-0.1-1.8C115.7,20.7,115.7,20.5,115.6,20.3z"/>
	<path d="M130.9,24.3c-0.1-0.1-0.1-0.1-0.2-0.1c-0.6-0.3-0.9-1-0.8-1.6c0-0.2,0.1-0.5,0.3-0.7c0.7-1.2,1.7-2.1,3.1-2.4
		c0.2,0,0.4-0.1,0.5-0.1c0.2,0,0.4,0.1,0.5,0.4c0,0.3,0.1,0.6,0,0.8c0,0.4-0.3,0.6-0.7,0.7c-0.4,0.1-0.8,0.3-1.1,0.5
		c-0.2,0.1-0.4,0.3-0.7,0.5c0,0,0,0,0,0.1c0.1,0,0.2,0,0.2,0c0.7,0,1.5,0,2.2,0c0.3,0,0.6,0.1,0.9,0.1c0.5,0.1,0.8,0.4,0.9,0.8
		c0.3,0.9,0.2,1.7-0.4,2.3c-0.6,0.6-1.2,1.1-2,1.4c-0.7,0.3-1.5,0.6-2.3,0.9c-0.2,0.1-0.4,0.1-0.6,0c-0.2-0.1-0.3-0.2-0.4-0.4
		c-0.1-0.2-0.1-0.3-0.2-0.5c-0.1-0.2,0-0.4,0.1-0.5c0.1-0.1,0.3-0.2,0.5-0.3c0.5-0.3,1.1-0.5,1.6-0.8c0.6-0.3,1.1-0.7,1.6-1.1
		c0,0,0.1-0.1,0.2-0.1c-0.3-0.2-0.5-0.2-0.7-0.2c-0.5-0.1-0.9,0-1.4,0.1c-0.4,0.1-0.8,0.1-1.2,0.1C131.1,24.3,131,24.3,130.9,24.3
		C130.9,24.3,130.9,24.3,130.9,24.3z"/>
	<path d="M138.1,25.9c0,0.8-0.3,1.5-0.7,2.1c-1.3,2.1-2.6,4.3-3.8,6.5c-0.5,0.8-1.1,1.4-1.7,2.1c-0.2,0.2-0.5,0.2-0.7,0.1
		c-0.2-0.1-0.2-0.3-0.2-0.5c0-0.1,0.1-0.2,0.1-0.2c1.6-3,3.3-6,4.9-8.9c0.3-0.6,0.7-1.2,1.2-1.7c0.1-0.2,0.3-0.3,0.5-0.2
		c0.2,0,0.3,0.2,0.4,0.4C138.1,25.6,138.1,25.8,138.1,25.9z"/>
	<path d="M111.8,18.1c0,0.1,0,0.1,0,0.2c0.2,0.8,0.1,1.6,0,2.4c-0.2,1.7-0.5,3.3-1,4.9c-0.1,0.3-0.2,0.5-0.4,0.7
		c-0.2,0.3-0.5,0.3-0.7,0.2c-0.2-0.1-0.3-0.2-0.3-0.5c0-0.1,0-0.2,0-0.3c0.5-2.5,1-5,1.5-7.5c0-0.2,0.1-0.3,0.1-0.5
		c0-0.1,0.1-0.2,0.2-0.3c0.3-0.2,0.6,0,0.6,0.3C111.8,17.9,111.8,18,111.8,18.1C111.8,18.1,111.8,18.1,111.8,18.1z"/>
	<path d="M175,27.3c0,0.7-0.5,1.1-1.2,1c-0.8-0.1-1.4-0.9-1.2-1.7c0.1-0.7,0.8-1,1.4-0.8C174.6,26.1,175,26.7,175,27.3z"/>
	<path d="M130.9,24.3C130.9,24.3,131,24.3,130.9,24.3C131,24.4,131,24.4,130.9,24.3C131,24.4,130.9,24.3,130.9,24.3
		C130.9,24.3,130.9,24.3,130.9,24.3z"/>
</g>
</svg>
